<svg version="1.1" id="Layer_1" xmlns="http://www.w3.org/2000/svg" xmlns:xlink="http://www.w3.org/1999/xlink" x="0px" y="0px"
	 width="100%" viewBox="0 0 1496 817" enable-background="new 0 0 1496 817" xml:space="preserve">
<path fill="#FFFFFF" opacity="1.000000" stroke="none" 
	d="
M529.000000,818.000000 
	C526.299988,818.000000 523.599976,818.000000 520.260498,817.681641 
	C510.418671,814.076233 501.256622,810.670227 492.003235,807.533630 
	C481.515015,803.978394 472.391296,806.318848 464.784546,814.432129 
	C463.836578,815.443237 462.772491,816.345459 461.099823,817.922852 
	C459.954224,814.059326 458.971680,811.096497 458.204803,808.078918 
	C456.983795,803.274414 456.174652,798.347412 454.665253,793.640930 
	C453.793823,790.923645 451.890137,788.537415 450.451019,786.002197 
	C448.559937,788.135925 446.639191,790.244202 444.786530,792.410767 
	C443.016815,794.480225 441.666962,797.836365 439.512817,798.449463 
	C435.475830,799.598450 435.047882,802.148438 435.273834,805.172852 
	C435.594666,809.467590 436.401062,813.726013 437.000000,818.000000 
	C435.933319,818.000000 434.866669,818.000000 433.266907,817.676880 
	C431.172272,814.097229 429.152832,810.974854 428.150970,807.554443 
	C426.431580,801.684631 425.460449,795.600220 423.962738,789.659485 
	C422.671295,784.536987 421.226715,779.440002 419.511871,774.447815 
	C419.151764,773.399414 416.497345,772.010254 416.288025,772.212708 
	C414.094513,774.334778 412.065552,776.666748 410.321228,779.170593 
	C410.057526,779.549072 411.252441,781.466125 412.168823,782.053589 
	C416.099304,784.572998 417.749451,791.910095 414.883026,795.601501 
	C414.283112,796.374023 412.818146,797.224670 412.054993,797.001648 
	C406.079010,795.255676 406.125824,799.450562 406.114471,803.094604 
	C406.097656,808.491089 405.726959,813.677429 402.000000,818.000000 
	C399.958344,818.000000 397.916656,818.000000 395.355591,817.672485 
	C393.395538,815.733398 391.897614,814.168945 390.525146,812.501221 
	C386.748993,807.912781 383.534637,802.012634 375.250671,807.928284 
	C375.250671,800.844788 375.250671,794.958313 375.250671,789.071777 
	C374.683563,788.733765 374.116486,788.395752 373.549377,788.057739 
	C369.727203,791.554565 365.729523,794.883057 362.151031,798.613708 
	C360.123169,800.727844 358.574799,801.079346 355.737854,800.081177 
	C346.342834,796.775635 336.903809,793.469727 327.267731,790.997986 
	C297.176941,783.279663 266.374573,782.507568 235.538452,782.297363 
	C202.583344,782.072693 169.606155,783.326843 136.743820,779.172058 
	C90.098335,773.274658 49.126915,755.302856 14.342786,723.450623 
	C11.621577,720.958801 10.549953,718.469238 11.525813,715.164978 
	C13.405340,708.800903 15.516183,702.505615 17.476931,696.165039 
	C18.691605,692.237183 19.637486,688.034058 15.961294,685.058289 
	C11.834257,681.717590 11.262813,677.452942 10.911050,672.653809 
	C10.159457,662.399902 9.482896,652.098999 7.875890,641.959961 
	C5.928166,629.671143 1.669612,617.579468 4.021880,604.981567 
	C5.354649,597.843750 6.124519,591.132996 2.653428,584.406433 
	C1.866521,582.881592 1.633152,580.742126 1.949055,579.034241 
	C3.300392,571.728394 4.521260,564.351562 6.610366,557.241760 
	C8.930764,549.344666 10.934233,541.562561 10.044915,533.230347 
	C9.089469,524.278442 13.707200,520.245911 22.911983,521.726013 
	C30.530144,522.950989 32.639381,521.411621 33.922195,513.600098 
	C34.593342,509.513245 34.696423,505.261627 35.906967,501.347595 
	C40.355293,486.964600 50.422558,478.302551 64.664528,474.096527 
	C70.079720,472.497284 75.406448,470.600647 80.805092,468.942413 
	C84.417755,467.832764 85.695641,466.216492 84.414772,462.055054 
	C81.679581,453.168793 79.513931,444.093872 77.422836,435.025238 
	C71.544220,409.530914 70.012962,384.013123 77.635094,358.541046 
	C79.890366,351.004242 78.890343,348.476807 71.834259,344.618011 
	C69.949295,343.587189 67.946510,342.656982 65.885788,342.082397 
	C57.177357,339.654419 52.262768,333.626709 49.518639,325.385162 
	C48.755089,323.091949 47.799847,320.862549 46.741058,318.105194 
	C45.098335,319.147461 44.071259,319.937073 42.929195,320.488586 
	C41.515800,321.171173 40.007038,321.656281 38.539463,322.226654 
	C38.026741,320.765472 37.276276,319.341644 37.039768,317.837036 
	C35.467514,307.834503 35.118549,297.486572 32.283146,287.866547 
	C25.709503,265.563385 17.750731,243.672577 10.755177,221.487946 
	C7.068277,209.795853 4.224478,197.837906 1.000000,186.000000 
	C1.000000,171.645767 1.000000,157.291550 1.331985,142.352188 
	C6.137584,129.922165 13.842829,120.449234 24.887985,114.634575 
	C35.112110,109.252159 45.867935,104.355209 56.951801,101.253357 
	C73.574997,96.601311 90.762558,94.005669 107.561874,89.925186 
	C115.071632,88.101097 122.051392,84.092339 129.562027,82.274963 
	C179.750870,70.130623 230.574203,61.420128 281.818512,55.182087 
	C333.103577,48.939083 384.588287,44.604656 436.213959,43.394829 
	C496.504944,41.981934 556.835815,41.512627 617.143982,41.791370 
	C683.958679,42.100189 750.764832,43.943016 817.579590,44.669418 
	C850.877502,45.031437 884.210205,46.280964 917.467224,42.866959 
	C973.949402,37.068771 1030.407959,30.967209 1086.963013,25.975475 
	C1130.749512,22.110746 1174.637573,19.129198 1218.539917,16.951019 
	C1244.164429,15.679678 1269.591797,14.293025 1294.891479,9.426007 
	C1318.641724,4.857067 1342.677124,3.793297 1366.979858,6.722956 
	C1418.485229,12.931895 1468.269165,60.052208 1479.314453,103.654327 
	C1485.839966,129.413895 1490.680786,155.331009 1492.048584,181.834732 
	C1493.499023,209.940002 1495.131226,238.060806 1495.487183,266.189972 
	C1495.790527,290.164429 1494.316528,314.158600 1493.774048,338.147339 
	C1493.261597,360.804474 1493.400757,383.485901 1492.421143,406.120636 
	C1491.031006,438.237762 1488.341553,470.302734 1487.193115,502.425232 
	C1485.877563,539.220459 1485.650269,576.054443 1484.932007,612.871216 
	C1484.284790,646.052734 1482.223389,679.106384 1474.943481,711.602966 
	C1471.006348,729.178345 1465.963501,746.396362 1456.212402,761.843079 
	C1454.099487,765.190186 1451.635376,767.588440 1447.548950,768.704407 
	C1424.932617,774.880981 1402.433594,781.488586 1379.805298,787.619873 
	C1361.350708,792.620239 1342.999390,798.573853 1324.199341,801.608887 
	C1284.878052,807.956848 1245.098999,810.809509 1205.292114,811.682312 
	C1160.151978,812.672058 1114.981079,812.923828 1069.829956,812.603088 
	C994.186279,812.065796 918.535217,809.804871 842.962891,815.069763 
	C833.950989,815.697693 824.986450,817.006714 816.000000,818.000000 
	C807.312439,818.000000 798.624817,818.000000 789.268188,817.652344 
	C755.120911,813.237610 721.598572,814.970154 688.082092,816.601135 
	C683.043945,816.846313 678.026855,817.522949 673.000000,818.000000 
	C648.979126,818.000000 624.958191,818.000000 600.499146,817.639221 
	C596.358093,809.161499 593.628235,808.566528 587.031677,814.435242 
	C585.691406,815.627625 584.344055,816.811951 583.000000,818.000000 
	C580.299988,818.000000 577.599976,818.000000 574.122864,817.854492 
	C567.347595,815.358276 561.390991,812.893494 555.338257,810.692993 
	C550.483093,808.927795 545.621582,808.958618 540.943726,811.556519 
	C536.989258,813.752563 532.983215,815.855713 529.000000,818.000000 
M856.859863,643.292358 
	C856.934998,642.630188 856.976196,641.962219 857.090149,641.306763 
	C866.463684,587.376038 875.835815,533.445007 885.228760,479.517639 
	C886.704712,471.044006 888.276550,462.587097 889.785400,454.225830 
	C892.571594,454.225830 894.831665,454.225830 897.439514,454.225830 
	C897.074402,458.168274 896.716187,461.782745 896.408691,465.401520 
	C895.142944,480.299194 894.846558,494.969299 902.918823,508.561584 
	C906.128418,513.965942 908.306519,519.983704 910.944702,525.726501 
	C939.966125,588.900879 968.985840,652.075989 998.004211,715.251709 
	C999.094238,717.624756 999.716125,719.874390 1003.426819,719.864868 
	C1059.752930,719.720276 1116.079590,719.746338 1172.406006,719.816895 
	C1175.252197,719.820496 1176.542847,719.061157 1177.009766,716.088989 
	C1178.480591,706.722290 1180.256104,697.403687 1181.895020,688.063171 
	C1192.044922,630.216858 1202.162476,572.364807 1212.342896,514.523865 
	C1223.504028,451.112305 1234.732788,387.712646 1245.911743,324.304199 
	C1257.523926,258.438171 1269.118164,192.568985 1280.701416,126.697899 
	C1281.985474,119.396263 1283.146973,112.073067 1284.400269,104.549416 
	C1282.897461,104.399895 1282.086060,104.248650 1281.274658,104.248489 
	C1221.281982,104.236519 1161.289185,104.253075 1101.296509,104.184563 
	C1098.424438,104.181282 1097.338501,104.984528 1096.824341,107.969086 
	C1092.501221,133.054321 1087.951294,158.100372 1083.493774,183.162552 
	C1074.316650,234.760788 1065.157227,286.362183 1055.983521,337.961029 
	C1054.095337,348.581055 1052.176636,359.195618 1050.270752,369.820068 
	C1047.583252,369.820068 1045.313354,369.820068 1042.579468,369.820068 
	C1042.931641,365.941956 1043.402344,362.348938 1043.559326,358.742279 
	C1044.107666,346.144073 1046.154541,333.335358 1040.636475,321.294891 
	C1008.001465,250.084106 975.244385,178.929291 942.613464,107.716644 
	C941.379944,105.024879 939.886169,104.167236 936.977478,104.171700 
	C880.984436,104.257629 824.991089,104.260750 768.998047,104.171349 
	C765.683777,104.166061 764.487915,105.129356 763.907043,108.497864 
	C756.300720,152.601212 748.542847,196.678497 740.770874,240.753143 
	C727.249573,317.432709 713.674377,394.102753 700.154724,470.782593 
	C686.837341,546.315674 673.555054,621.854919 660.275452,697.394653 
	C658.995972,704.672546 657.844238,711.972900 656.655579,719.128052 
	C657.707092,719.488831 658.016235,719.687744 658.325500,719.687927 
	C718.984070,719.722290 779.642700,719.724304 840.301208,719.817688 
	C843.297852,719.822266 843.729370,718.369995 844.148987,715.928711 
	C848.263794,691.988953 852.502808,668.070435 856.859863,643.292358 
M367.231140,689.097534 
	C380.641266,690.532166 394.051147,691.969055 407.461548,693.401062 
	C437.425385,696.600769 467.388794,699.803711 497.353546,702.994629 
	C524.172546,705.850525 550.992615,708.696533 577.813171,711.538391 
	C594.007446,713.254395 610.203491,714.954224 626.878784,716.711914 
	C629.503845,701.973633 632.087097,687.470642 634.749268,672.524170 
	C494.073181,672.524170 353.850952,672.524170 213.628708,672.524170 
	C213.603500,672.629456 213.578278,672.734741 213.553070,672.840027 
	C264.476196,678.240601 315.399323,683.641235 367.231140,689.097534 
M614.562622,521.895447 
	C629.728394,523.470825 644.894104,525.046265 660.395569,526.656494 
	C663.038818,511.694427 665.592651,497.238281 668.204102,482.456177 
	C527.562073,482.456177 387.677643,482.456177 247.793228,482.456177 
	C272.882935,485.540436 298.011505,488.261322 323.144562,490.940460 
	C353.269379,494.151733 383.398438,497.323547 413.524902,500.519501 
	C446.301605,503.996582 479.078094,507.475922 511.853516,510.965088 
	C545.787598,514.577576 579.720337,518.203064 614.562622,521.895447 
M396.325958,306.040527 
	C495.426941,316.580750 594.527954,327.121002 693.852600,337.685028 
	C696.506897,322.657074 699.064758,308.175415 701.674316,293.400879 
	C560.905029,293.400879 420.858673,293.400879 280.812317,293.400879 
	C280.799652,293.523834 280.786987,293.646820 280.774323,293.769775 
	C318.989014,297.846313 357.203674,301.922821 396.325958,306.040527 
M704.134460,146.171021 
	C711.384094,146.966400 718.633789,147.761780 726.332886,148.606476 
	C728.972595,133.751511 731.546692,119.265778 734.178406,104.456108 
	C593.946838,104.456108 454.274780,104.456108 314.602722,104.456108 
	C324.448517,105.764496 334.331970,106.923775 344.226746,107.977127 
	C373.853271,111.131027 403.486084,114.225380 433.112854,117.376991 
	C466.214874,120.898285 499.312592,124.459648 532.412781,127.998322 
	C559.223450,130.864594 586.033142,133.740799 612.846680,136.580383 
	C642.972290,139.770706 673.101624,142.924835 704.134460,146.171021 
M614.370361,618.052063 
	C624.069946,619.086121 633.769531,620.120178 643.637329,621.172180 
	C646.287231,606.172363 648.821106,591.829407 651.398193,577.241699 
	C511.380737,577.241699 371.940216,577.241699 232.499725,577.241699 
	C260.304169,580.518738 288.118256,583.424744 315.927155,586.379395 
	C348.875549,589.880249 381.817108,593.445068 414.766022,596.941040 
	C444.570068,600.103210 474.382416,603.187012 504.186737,606.346924 
	C540.613220,610.209045 577.035156,614.114319 614.370361,618.052063 
M435.891388,406.595215 
	C516.137695,415.093719 596.384033,423.592224 677.081909,432.138550 
	C679.720093,417.325989 682.296814,402.858368 684.915955,388.152405 
	C545.057190,388.152405 405.650818,388.152405 266.244415,388.152405 
	C266.237732,388.291901 266.231018,388.431396 266.224335,388.570892 
	C322.481598,394.524017 378.738831,400.477173 435.891388,406.595215 
M511.464172,221.997864 
	C577.771301,229.027878 644.078491,236.057877 710.601624,243.110779 
	C712.910217,228.094894 715.117310,213.739304 717.346069,199.242950 
	C577.923523,199.242950 439.221222,199.242950 300.518951,199.242950 
	C300.518585,199.354568 300.518219,199.466187 300.517853,199.577805 
	C370.529724,207.029373 440.541595,214.480942 511.464172,221.997864 
z"/>
<path fill="#0180FF" opacity="1.000000" stroke="none" 
	d="
M816.468628,818.000000 
	C824.986450,817.006714 833.950989,815.697693 842.962891,815.069763 
	C918.535217,809.804871 994.186279,812.065796 1069.829956,812.603088 
	C1114.981079,812.923828 1160.151978,812.672058 1205.292114,811.682312 
	C1245.098999,810.809509 1284.878052,807.956848 1324.199341,801.608887 
	C1342.999390,798.573853 1361.350708,792.620239 1379.805298,787.619873 
	C1402.433594,781.488586 1424.932617,774.880981 1447.548950,768.704407 
	C1451.635376,767.588440 1454.099487,765.190186 1456.212402,761.843079 
	C1465.963501,746.396362 1471.006348,729.178345 1474.943481,711.602966 
	C1482.223389,679.106384 1484.284790,646.052734 1484.932007,612.871216 
	C1485.650269,576.054443 1485.877563,539.220459 1487.193115,502.425232 
	C1488.341553,470.302734 1491.031006,438.237762 1492.421143,406.120636 
	C1493.400757,383.485901 1493.261597,360.804474 1493.774048,338.147339 
	C1494.316528,314.158600 1495.790527,290.164429 1495.487183,266.189972 
	C1495.131226,238.060806 1493.499023,209.940002 1492.048584,181.834732 
	C1490.680786,155.331009 1485.839966,129.413895 1479.314453,103.654327 
	C1468.269165,60.052208 1418.485229,12.931895 1366.979858,6.722956 
	C1342.677124,3.793297 1318.641724,4.857067 1294.891479,9.426007 
	C1269.591797,14.293025 1244.164429,15.679678 1218.539917,16.951019 
	C1174.637573,19.129198 1130.749512,22.110746 1086.963013,25.975475 
	C1030.407959,30.967209 973.949402,37.068771 917.467224,42.866959 
	C884.210205,46.280964 850.877502,45.031437 817.579590,44.669418 
	C750.764832,43.943016 683.958679,42.100189 617.143982,41.791370 
	C556.835815,41.512627 496.504944,41.981934 436.213959,43.394829 
	C384.588287,44.604656 333.103577,48.939083 281.818512,55.182087 
	C230.574203,61.420128 179.750870,70.130623 129.562027,82.274963 
	C122.051392,84.092339 115.071632,88.101097 107.561874,89.925186 
	C90.762558,94.005669 73.574997,96.601311 56.951801,101.253357 
	C45.867935,104.355209 35.112110,109.252159 24.887985,114.634575 
	C13.842829,120.449234 6.137584,129.922165 1.331985,141.883530 
	C1.000000,95.006531 1.000000,48.013062 1.000000,1.014693 
	C499.590851,1.009795 998.181702,1.009795 1496.886230,1.009795 
	C1496.886230,273.219635 1496.886230,545.439331 1496.886230,818.000000 
	C1270.312500,818.000000 1043.624878,818.000000 816.468628,818.000000 
z"/>
<path fill="#0181FF" opacity="1.000000" stroke="none" 
	d="
M1.000000,186.468658 
	C4.224478,197.837906 7.068277,209.795853 10.755177,221.487946 
	C17.750731,243.672577 25.709503,265.563385 32.283146,287.866547 
	C35.118549,297.486572 35.467514,307.834503 37.039768,317.837036 
	C37.276276,319.341644 38.026741,320.765472 38.539463,322.226654 
	C40.007038,321.656281 41.515800,321.171173 42.929195,320.488586 
	C44.071259,319.937073 45.098335,319.147461 46.741058,318.105194 
	C47.799847,320.862549 48.755089,323.091949 49.518639,325.385162 
	C52.262768,333.626709 57.177357,339.654419 65.885788,342.082397 
	C67.946510,342.656982 69.949295,343.587189 71.834259,344.618011 
	C78.890343,348.476807 79.890366,351.004242 77.635094,358.541046 
	C70.012962,384.013123 71.544220,409.530914 77.422836,435.025238 
	C79.513931,444.093872 81.679581,453.168793 84.414772,462.055054 
	C85.695641,466.216492 84.417755,467.832764 80.805092,468.942413 
	C75.406448,470.600647 70.079720,472.497284 64.664528,474.096527 
	C50.422558,478.302551 40.355293,486.964600 35.906967,501.347595 
	C34.696423,505.261627 34.593342,509.513245 33.922195,513.600098 
	C32.639381,521.411621 30.530144,522.950989 22.911983,521.726013 
	C13.707200,520.245911 9.089469,524.278442 10.044915,533.230347 
	C10.934233,541.562561 8.930764,549.344666 6.610366,557.241760 
	C4.521260,564.351562 3.300392,571.728394 1.949055,579.034241 
	C1.633152,580.742126 1.866521,582.881592 2.653428,584.406433 
	C6.124519,591.132996 5.354649,597.843750 4.021880,604.981567 
	C1.669612,617.579468 5.928166,629.671143 7.875890,641.959961 
	C9.482896,652.098999 10.159457,662.399902 10.911050,672.653809 
	C11.262813,677.452942 11.834257,681.717590 15.961294,685.058289 
	C19.637486,688.034058 18.691605,692.237183 17.476931,696.165039 
	C15.516183,702.505615 13.405340,708.800903 11.525813,715.164978 
	C10.549953,718.469238 11.621577,720.958801 14.342786,723.450623 
	C49.126915,755.302856 90.098335,773.274658 136.743820,779.172058 
	C169.606155,783.326843 202.583344,782.072693 235.538452,782.297363 
	C266.374573,782.507568 297.176941,783.279663 327.267731,790.997986 
	C336.903809,793.469727 346.342834,796.775635 355.737854,800.081177 
	C358.574799,801.079346 360.123169,800.727844 362.151031,798.613708 
	C365.729523,794.883057 369.727203,791.554565 373.549377,788.057739 
	C374.116486,788.395752 374.683563,788.733765 375.250671,789.071777 
	C375.250671,794.958313 375.250671,800.844788 375.250671,807.928284 
	C383.534637,802.012634 386.748993,807.912781 390.525146,812.501221 
	C391.897614,814.168945 393.395538,815.733398 394.918091,817.672485 
	C263.722656,818.000000 132.445343,818.000000 1.000000,818.000000 
	C1.000000,607.645813 1.000000,397.291565 1.000000,186.468658 
z"/>
<path fill="#0482FF" opacity="1.000000" stroke="none" 
	d="
M437.468658,818.000000 
	C436.401062,813.726013 435.594666,809.467590 435.273834,805.172852 
	C435.047882,802.148438 435.475830,799.598450 439.512817,798.449463 
	C441.666962,797.836365 443.016815,794.480225 444.786530,792.410767 
	C446.639191,790.244202 448.559937,788.135925 450.451019,786.002197 
	C451.890137,788.537415 453.793823,790.923645 454.665253,793.640930 
	C456.174652,798.347412 456.983795,803.274414 458.204803,808.078918 
	C458.971680,811.096497 459.954224,814.059326 461.099823,817.922852 
	C462.772491,816.345459 463.836578,815.443237 464.784546,814.432129 
	C472.391296,806.318848 481.515015,803.978394 492.003235,807.533630 
	C501.256622,810.670227 510.418671,814.076233 519.810547,817.681641 
	C492.645782,818.000000 465.291534,818.000000 437.468658,818.000000 
z"/>
<path fill="#0683FF" opacity="1.000000" stroke="none" 
	d="
M402.468658,818.000000 
	C405.726959,813.677429 406.097656,808.491089 406.114471,803.094604 
	C406.125824,799.450562 406.079010,795.255676 412.054993,797.001648 
	C412.818146,797.224670 414.283112,796.374023 414.883026,795.601501 
	C417.749451,791.910095 416.099304,784.572998 412.168823,782.053589 
	C411.252441,781.466125 410.057526,779.549072 410.321228,779.170593 
	C412.065552,776.666748 414.094513,774.334778 416.288025,772.212708 
	C416.497345,772.010254 419.151764,773.399414 419.511871,774.447815 
	C421.226715,779.440002 422.671295,784.536987 423.962738,789.659485 
	C425.460449,795.600220 426.431580,801.684631 428.150970,807.554443 
	C429.152832,810.974854 431.172272,814.097229 432.866943,817.676880 
	C422.979095,818.000000 412.958221,818.000000 402.468658,818.000000 
z"/>
<path fill="#0C86FF" opacity="1.000000" stroke="none" 
	d="
M673.468628,818.000000 
	C678.026855,817.522949 683.043945,816.846313 688.082092,816.601135 
	C721.598572,814.970154 755.120911,813.237610 788.799561,817.652344 
	C750.645752,818.000000 712.291565,818.000000 673.468628,818.000000 
z"/>
<path fill="#0783FF" opacity="1.000000" stroke="none" 
	d="
M529.468628,818.000000 
	C532.983215,815.855713 536.989258,813.752563 540.943726,811.556519 
	C545.621582,808.958618 550.483093,808.927795 555.338257,810.692993 
	C561.390991,812.893494 567.347595,815.358276 573.672852,817.854492 
	C559.312439,818.000000 544.624878,818.000000 529.468628,818.000000 
z"/>
<path fill="#0683FF" opacity="1.000000" stroke="none" 
	d="
M583.467590,818.000000 
	C584.344055,816.811951 585.691406,815.627625 587.031677,814.435242 
	C593.628235,808.566528 596.358093,809.161499 600.030518,817.639221 
	C594.645081,818.000000 589.290100,818.000000 583.467590,818.000000 
z"/>
<path fill="#0080FF" opacity="1.000000" stroke="none" 
	d="
M856.783203,643.719116 
	C852.502808,668.070435 848.263794,691.988953 844.148987,715.928711 
	C843.729370,718.369995 843.297852,719.822266 840.301208,719.817688 
	C779.642700,719.724304 718.984070,719.722290 658.325500,719.687927 
	C658.016235,719.687744 657.707092,719.488831 656.655579,719.128052 
	C657.844238,711.972900 658.995972,704.672546 660.275452,697.394653 
	C673.555054,621.854919 686.837341,546.315674 700.154724,470.782593 
	C713.674377,394.102753 727.249573,317.432709 740.770874,240.753143 
	C748.542847,196.678497 756.300720,152.601212 763.907043,108.497864 
	C764.487915,105.129356 765.683777,104.166061 768.998047,104.171349 
	C824.991089,104.260750 880.984436,104.257629 936.977478,104.171700 
	C939.886169,104.167236 941.379944,105.024879 942.613464,107.716644 
	C975.244385,178.929291 1008.001465,250.084106 1040.636475,321.294891 
	C1046.154541,333.335358 1044.107666,346.144073 1043.559326,358.742279 
	C1043.402344,362.348938 1042.931641,365.941956 1042.579468,369.820068 
	C1045.313354,369.820068 1047.583252,369.820068 1050.270752,369.820068 
	C1052.176636,359.195618 1054.095337,348.581055 1055.983521,337.961029 
	C1065.157227,286.362183 1074.316650,234.760788 1083.493774,183.162552 
	C1087.951294,158.100372 1092.501221,133.054321 1096.824341,107.969086 
	C1097.338501,104.984528 1098.424438,104.181282 1101.296509,104.184563 
	C1161.289185,104.253075 1221.281982,104.236519 1281.274658,104.248489 
	C1282.086060,104.248650 1282.897461,104.399895 1284.400269,104.549416 
	C1283.146973,112.073067 1281.985474,119.396263 1280.701416,126.697899 
	C1269.118164,192.568985 1257.523926,258.438171 1245.911743,324.304199 
	C1234.732788,387.712646 1223.504028,451.112305 1212.342896,514.523865 
	C1202.162476,572.364807 1192.044922,630.216858 1181.895020,688.063171 
	C1180.256104,697.403687 1178.480591,706.722290 1177.009766,716.088989 
	C1176.542847,719.061157 1175.252197,719.820496 1172.406006,719.816895 
	C1116.079590,719.746338 1059.752930,719.720276 1003.426819,719.864868 
	C999.716125,719.874390 999.094238,717.624756 998.004211,715.251709 
	C968.985840,652.075989 939.966125,588.900879 910.944702,525.726501 
	C908.306519,519.983704 906.128418,513.965942 902.918823,508.561584 
	C894.846558,494.969299 895.142944,480.299194 896.408691,465.401520 
	C896.716187,461.782745 897.074402,458.168274 897.439514,454.225830 
	C894.831665,454.225830 892.571594,454.225830 889.785400,454.225830 
	C888.276550,462.587097 886.704712,471.044006 885.228760,479.517639 
	C875.835815,533.445007 866.463684,587.376038 857.090149,641.306763 
	C856.976196,641.962219 856.934998,642.630188 856.783203,643.719116 
z"/>
<path fill="#0683FF" opacity="1.000000" stroke="none" 
	d="
M366.776794,689.069702 
	C315.399323,683.641235 264.476196,678.240601 213.553070,672.840027 
	C213.578278,672.734741 213.603500,672.629456 213.628708,672.524170 
	C353.850952,672.524170 494.073181,672.524170 634.749268,672.524170 
	C632.087097,687.470642 629.503845,701.973633 626.878784,716.711914 
	C610.203491,714.954224 594.007446,713.254395 577.813171,711.538391 
	C550.992615,708.696533 524.172546,705.850525 497.353546,702.994629 
	C467.388794,699.803711 437.425385,696.600769 407.461548,693.401062 
	C394.051147,691.969055 380.641266,690.532166 366.776794,689.069702 
z"/>
<path fill="#0683FF" opacity="1.000000" stroke="none" 
	d="
M614.108154,521.859131 
	C579.720337,518.203064 545.787598,514.577576 511.853516,510.965088 
	C479.078094,507.475922 446.301605,503.996582 413.524902,500.519501 
	C383.398438,497.323547 353.269379,494.151733 323.144562,490.940460 
	C298.011505,488.261322 272.882935,485.540436 247.793228,482.456177 
	C387.677643,482.456177 527.562073,482.456177 668.204102,482.456177 
	C665.592651,497.238281 663.038818,511.694427 660.395569,526.656494 
	C644.894104,525.046265 629.728394,523.470825 614.108154,521.859131 
z"/>
<path fill="#0583FF" opacity="1.000000" stroke="none" 
	d="
M395.872162,306.019958 
	C357.203674,301.922821 318.989014,297.846313 280.774323,293.769775 
	C280.786987,293.646820 280.799652,293.523834 280.812317,293.400879 
	C420.858673,293.400879 560.905029,293.400879 701.674316,293.400879 
	C699.064758,308.175415 696.506897,322.657074 693.852600,337.685028 
	C594.527954,327.121002 495.426941,316.580750 395.872162,306.019958 
z"/>
<path fill="#0583FF" opacity="1.000000" stroke="none" 
	d="
M703.681885,146.132874 
	C673.101624,142.924835 642.972290,139.770706 612.846680,136.580383 
	C586.033142,133.740799 559.223450,130.864594 532.412781,127.998322 
	C499.312592,124.459648 466.214874,120.898285 433.112854,117.376991 
	C403.486084,114.225380 373.853271,111.131027 344.226746,107.977127 
	C334.331970,106.923775 324.448517,105.764496 314.602722,104.456108 
	C454.274780,104.456108 593.946838,104.456108 734.178406,104.456108 
	C731.546692,119.265778 728.972595,133.751511 726.332886,148.606476 
	C718.633789,147.761780 711.384094,146.966400 703.681885,146.132874 
z"/>
<path fill="#0281FF" opacity="1.000000" stroke="none" 
	d="
M613.914734,618.026489 
	C577.035156,614.114319 540.613220,610.209045 504.186737,606.346924 
	C474.382416,603.187012 444.570068,600.103210 414.766022,596.941040 
	C381.817108,593.445068 348.875549,589.880249 315.927155,586.379395 
	C288.118256,583.424744 260.304169,580.518738 232.499725,577.241699 
	C371.940216,577.241699 511.380737,577.241699 651.398193,577.241699 
	C648.821106,591.829407 646.287231,606.172363 643.637329,621.172180 
	C633.769531,620.120178 624.069946,619.086121 613.914734,618.026489 
z"/>
<path fill="#0281FF" opacity="1.000000" stroke="none" 
	d="
M435.443726,406.512756 
	C378.738831,400.477173 322.481598,394.524017 266.224335,388.570892 
	C266.231018,388.431396 266.237732,388.291901 266.244415,388.152405 
	C405.650818,388.152405 545.057190,388.152405 684.915955,388.152405 
	C682.296814,402.858368 679.720093,417.325989 677.081909,432.138550 
	C596.384033,423.592224 516.137695,415.093719 435.443726,406.512756 
z"/>
<path fill="#0281FF" opacity="1.000000" stroke="none" 
	d="
M511.008820,221.965179 
	C440.541595,214.480942 370.529724,207.029373 300.517853,199.577805 
	C300.518219,199.466187 300.518585,199.354568 300.518951,199.242950 
	C439.221222,199.242950 577.923523,199.242950 717.346069,199.242950 
	C715.117310,213.739304 712.910217,228.094894 710.601624,243.110779 
	C644.078491,236.057877 577.771301,229.027878 511.008820,221.965179 
z"/>
</svg>