<svg version="1.1" id="Layer_1" xmlns="http://www.w3.org/2000/svg" xmlns:xlink="http://www.w3.org/1999/xlink" x="0px" y="0px"
	 width="100%" viewBox="0 0 2000 1500" enable-background="new 0 0 2000 1500" xml:space="preserve">
<path fill="#FFFFFF" opacity="1.000000" stroke="none" 
	d="
M1052.000000,1501.000000 
	C701.333435,1501.000000 351.166870,1501.000000 1.000235,1501.000000 
	C1.000157,1001.000244 1.000157,501.000519 1.000078,1.000570 
	C667.666199,1.000380 1334.332397,1.000380 2000.999023,1.000190 
	C2000.999268,500.999390 2000.999268,1000.998779 2000.999634,1500.999023 
	C1684.833374,1501.000000 1368.666626,1501.000000 1052.000000,1501.000000 
M607.044373,842.034424 
	C607.044373,842.034424 607.181213,842.145203 607.229858,842.918213 
	C607.389893,843.930115 607.549866,844.942017 607.709900,845.953918 
	C611.687134,844.268677 611.469177,847.958618 612.293762,849.795959 
	C616.040710,858.144958 619.748596,866.519897 623.152893,875.012756 
	C636.457764,908.205811 653.541016,939.027344 678.202820,965.337891 
	C684.993408,972.582520 690.837219,980.717285 697.063171,988.485535 
	C697.876648,989.500610 699.045288,990.848877 698.915955,991.903870 
	C697.887695,1000.288818 703.578003,1005.885986 707.296265,1012.162598 
	C727.414368,1046.123291 756.496277,1072.156982 785.869385,1097.384766 
	C826.632019,1132.394409 875.110229,1153.374146 926.689026,1166.780396 
	C947.358154,1172.152954 968.848572,1174.419067 990.009155,1177.825928 
	C1000.667969,1179.541992 1011.414734,1181.733398 1022.139404,1181.834595 
	C1060.367432,1182.195435 1097.761353,1175.270874 1134.359009,1165.131958 
	C1218.123779,1141.926025 1288.035400,1096.316650 1344.239624,1030.249146 
	C1409.515625,953.518066 1441.411621,863.816895 1444.808716,763.601013 
	C1445.684937,737.752136 1443.882324,712.027405 1440.165527,686.408386 
	C1434.320801,646.121643 1423.159424,607.438232 1406.087891,570.475952 
	C1405.420166,569.030090 1404.466431,567.667908 1403.428833,566.452087 
	C1401.713623,564.442322 1399.202393,562.885376 1398.096802,560.616150 
	C1382.118042,527.820190 1362.792480,497.178406 1339.306396,469.246918 
	C1296.378662,418.194092 1244.167236,379.762970 1182.372681,354.476440 
	C1181.000000,353.914734 1178.720459,352.757294 1178.258545,353.232758 
	C1174.958862,356.628540 1172.286011,353.275696 1169.479248,352.650757 
	C1166.905273,352.077545 1164.487183,350.828156 1161.975952,349.946320 
	C1128.429688,338.166168 1094.152954,329.501648 1058.710327,325.859039 
	C1039.678833,323.903076 1020.680237,321.216736 1001.596802,320.265930 
	C967.209961,318.552643 933.037842,321.460815 899.239258,328.110168 
	C848.448608,338.102386 800.738037,356.060211 756.831665,383.710663 
	C755.776428,384.375214 754.886292,385.366425 754.070679,386.333099 
	C752.565979,388.116638 751.498047,390.440399 749.682617,391.762360 
	C737.436401,400.679810 724.684631,408.935974 712.755066,418.249664 
	C650.093018,467.171387 605.479126,529.271729 578.349915,603.943909 
	C573.833679,616.374573 571.718140,629.359680 569.057251,642.317871 
	C560.175781,685.568115 554.029541,728.832581 556.789246,773.128967 
	C559.129333,810.690491 567.195129,846.844788 581.568909,881.602661 
	C583.332397,885.867249 585.329529,890.035156 587.218384,894.247925 
	C587.421753,894.151733 587.625183,894.055542 587.828552,893.959351 
	C587.459778,891.086609 587.091064,888.213928 586.722290,885.341187 
	C587.215576,885.237671 587.708862,885.134216 588.202148,885.030701 
	C588.765625,885.937134 589.444702,886.791992 589.875366,887.757629 
	C597.124695,904.011230 604.217529,920.336365 611.641907,936.509277 
	C613.991272,941.627014 616.970093,946.506775 620.120239,951.186157 
	C621.924805,953.866699 624.653076,955.925415 626.965454,958.264099 
	C627.286743,957.986694 627.608032,957.709351 627.929321,957.431946 
	C602.198730,905.117188 584.501160,850.567078 581.809265,791.842163 
	C583.894226,801.045837 585.979187,810.249512 588.064148,819.453186 
	C588.550659,819.341125 589.037231,819.229004 589.523743,819.116943 
	C589.523743,806.729614 589.453247,794.341736 589.539856,781.955017 
	C589.677246,762.315491 589.730835,742.671692 590.243835,723.040833 
	C590.380432,717.815186 592.061523,712.629944 593.033447,707.426147 
	C593.904236,709.265320 594.064758,710.933838 593.880554,712.563354 
	C589.897461,747.792847 592.022888,782.738953 599.258911,817.356079 
	C601.005554,825.712402 604.317505,833.741516 607.044373,842.034424 
z"/>
<path fill="#4890FC" opacity="1.000000" stroke="none" 
	d="
M606.909668,841.921143 
	C604.317505,833.741516 601.005554,825.712402 599.258911,817.356079 
	C592.022888,782.738953 589.897461,747.792847 593.880554,712.563354 
	C594.064758,710.933838 593.904236,709.265320 593.033447,707.426147 
	C592.061523,712.629944 590.380432,717.815186 590.243835,723.040833 
	C589.730835,742.671692 589.677246,762.315491 589.539856,781.955017 
	C589.453247,794.341736 589.523743,806.729614 589.523743,819.116943 
	C589.037231,819.229004 588.550659,819.341125 588.064148,819.453186 
	C585.979187,810.249512 583.894226,801.045837 581.809265,791.842163 
	C584.501160,850.567078 602.198730,905.117188 627.929321,957.431946 
	C627.608032,957.709351 627.286743,957.986694 626.965454,958.264099 
	C624.653076,955.925415 621.924805,953.866699 620.120239,951.186157 
	C616.970093,946.506775 613.991272,941.627014 611.641907,936.509277 
	C604.217529,920.336365 597.124695,904.011230 589.875366,887.757629 
	C589.444702,886.791992 588.765625,885.937134 588.202148,885.030701 
	C587.708862,885.134216 587.215576,885.237671 586.722290,885.341187 
	C587.091064,888.213928 587.459778,891.086609 587.828552,893.959351 
	C587.625183,894.055542 587.421753,894.151733 587.218384,894.247925 
	C585.329529,890.035156 583.332397,885.867249 581.568909,881.602661 
	C567.195129,846.844788 559.129333,810.690491 556.789246,773.128967 
	C554.029541,728.832581 560.175781,685.568115 569.057251,642.317871 
	C571.718140,629.359680 573.833679,616.374573 578.349915,603.943909 
	C605.479126,529.271729 650.093018,467.171387 712.755066,418.249664 
	C724.684631,408.935974 737.436401,400.679810 749.682617,391.762360 
	C751.498047,390.440399 752.565979,388.116638 754.070679,386.333099 
	C754.886292,385.366425 755.776428,384.375214 756.831665,383.710663 
	C800.738037,356.060211 848.448608,338.102386 899.239258,328.110168 
	C933.037842,321.460815 967.209961,318.552643 1001.596802,320.265930 
	C1020.680237,321.216736 1039.678833,323.903076 1058.710327,325.859039 
	C1094.152954,329.501648 1128.429688,338.166168 1161.975952,349.946320 
	C1164.487183,350.828156 1166.905273,352.077545 1169.479248,352.650757 
	C1172.286011,353.275696 1174.958862,356.628540 1178.258545,353.232758 
	C1178.720459,352.757294 1181.000000,353.914734 1182.372681,354.476440 
	C1244.167236,379.762970 1296.378662,418.194092 1339.306396,469.246918 
	C1362.792480,497.178406 1382.118042,527.820190 1398.096802,560.616150 
	C1399.202393,562.885376 1401.713623,564.442322 1403.428833,566.452087 
	C1404.466431,567.667908 1405.420166,569.030090 1406.087891,570.475952 
	C1423.159424,607.438232 1434.320801,646.121643 1440.165527,686.408386 
	C1443.882324,712.027405 1445.684937,737.752136 1444.808716,763.601013 
	C1441.411621,863.816895 1409.515625,953.518066 1344.239624,1030.249146 
	C1288.035400,1096.316650 1218.123779,1141.926025 1134.359009,1165.131958 
	C1097.761353,1175.270874 1060.367432,1182.195435 1022.139404,1181.834595 
	C1011.414734,1181.733398 1000.667969,1179.541992 990.009155,1177.825928 
	C968.848572,1174.419067 947.358154,1172.152954 926.689026,1166.780396 
	C875.110229,1153.374146 826.632019,1132.394409 785.869385,1097.384766 
	C756.496277,1072.156982 727.414368,1046.123291 707.296265,1012.162598 
	C703.578003,1005.885986 697.887695,1000.288818 698.915955,991.903870 
	C699.045288,990.848877 697.876648,989.500610 697.063171,988.485535 
	C690.837219,980.717285 684.993408,972.582520 678.202820,965.337891 
	C653.541016,939.027344 636.457764,908.205811 623.152893,875.012756 
	C619.748596,866.519897 616.040710,858.144958 612.293762,849.795959 
	C611.469177,847.958618 611.687134,844.268677 607.709900,845.953918 
	C607.549866,844.942017 607.389893,843.930115 607.483032,842.315857 
	C607.736145,840.710693 607.736145,839.707886 607.736145,838.705078 
	C607.460632,838.704346 607.185181,838.703613 606.909668,838.702881 
	C606.909668,839.775635 606.909668,840.848389 606.909668,841.921143 
M777.075378,1020.336731 
	C777.254150,1020.344604 777.432922,1020.352478 777.611694,1020.360413 
	C777.394226,1020.248840 777.176758,1020.137268 776.892090,1019.502686 
	C776.603149,1019.327759 776.314209,1019.152771 775.805664,1018.344360 
	C774.766846,1017.276245 773.741272,1016.195007 772.687012,1015.142334 
	C767.806763,1010.269592 761.198059,1006.157654 764.979736,997.477905 
	C765.054260,997.306946 764.398987,996.818054 763.262451,995.588501 
	C762.693542,996.938416 762.195312,998.120850 761.379333,1000.057129 
	C757.270447,994.613403 753.911011,990.162598 750.551575,985.711731 
	C750.213196,985.903015 749.874756,986.094238 749.536377,986.285522 
	C751.491272,990.394226 753.446167,994.502869 754.981384,999.026794 
	C754.846313,999.169861 754.711182,999.312927 753.961487,999.165710 
	C751.672913,997.706238 749.384277,996.246765 747.095703,994.787292 
	C746.841003,995.187683 746.586304,995.588074 746.331604,995.988464 
	C754.581055,1005.697632 764.141174,1013.768250 775.982422,1019.664246 
	C776.332275,1019.761597 776.682129,1019.858948 777.075378,1020.336731 
M1300.893188,931.375000 
	C1300.893188,931.375000 1300.787231,931.803894 1300.208008,932.141418 
	C1291.008301,943.317932 1281.808594,954.494507 1272.060791,966.058777 
	C1269.606201,970.294250 1266.459839,972.803955 1261.193604,970.844299 
	C1260.409668,970.552490 1259.237549,971.303528 1257.286743,971.831482 
	C1259.210571,972.728882 1260.126343,973.156067 1262.494141,974.260559 
	C1254.457764,980.769470 1247.140747,986.695801 1239.823608,992.622192 
	C1239.162842,992.085632 1238.502075,991.549133 1237.841431,991.012573 
	C1239.514526,987.995850 1241.104980,984.929504 1242.881104,981.974731 
	C1245.264526,978.009827 1251.970825,977.867371 1252.027954,971.724731 
	C1252.031250,971.383728 1253.051025,970.865234 1253.659912,970.745300 
	C1260.175781,969.462097 1262.675049,964.168396 1265.980957,959.294617 
	C1268.454346,955.648010 1272.078735,952.581726 1275.715942,949.995850 
	C1278.110229,948.293701 1278.748901,947.246521 1276.848267,945.021912 
	C1276.103394,944.150146 1275.466797,943.186035 1274.163818,941.434570 
	C1269.273560,946.161865 1264.572510,950.706299 1259.126587,955.970825 
	C1259.126587,953.018616 1259.126587,951.513733 1259.126587,950.008789 
	C1258.713989,949.851257 1258.301392,949.693665 1257.888794,949.536133 
	C1256.286011,952.509338 1254.683350,955.482544 1253.051392,958.509949 
	C1254.046875,958.935425 1254.797852,959.256409 1256.258179,959.880615 
	C1253.489868,961.913757 1251.274048,963.541077 1249.058228,965.168396 
	C1248.670654,964.810913 1248.283081,964.453369 1247.895508,964.095825 
	C1248.342041,962.806519 1248.788696,961.517273 1249.709229,959.951599 
	C1249.702759,959.705383 1249.696289,959.459106 1249.689819,959.212830 
	C1249.351807,959.366577 1249.013794,959.520325 1248.040283,959.900757 
	C1244.084351,965.216064 1240.104614,970.513916 1236.179321,975.851746 
	C1232.530762,980.813538 1228.359741,984.881042 1221.714844,985.073853 
	C1219.085205,977.597351 1219.085205,977.597351 1225.966309,977.275391 
	C1228.939941,972.267639 1232.236450,967.625122 1234.546631,962.534912 
	C1236.355347,958.549194 1238.289673,959.624939 1239.994629,960.767883 
	C1244.178711,955.756409 1248.282227,950.998169 1252.204834,946.095215 
	C1255.513672,941.959229 1258.817017,937.791748 1261.753174,933.391663 
	C1265.583374,927.651917 1268.848389,921.532288 1272.732422,915.832031 
	C1276.040894,910.976440 1279.881226,906.483093 1283.813477,901.407227 
	C1283.661377,901.380554 1284.600952,901.545288 1285.553711,901.712341 
	C1286.197632,896.784973 1288.164795,893.282959 1291.480225,889.297241 
	C1296.506714,883.254700 1299.508545,875.132324 1301.910156,867.437744 
	C1303.578735,862.091187 1303.232666,856.493103 1309.529663,853.521545 
	C1311.368530,852.653809 1312.267822,849.109802 1312.930542,846.615295 
	C1313.690552,843.753723 1313.380005,840.609253 1314.128418,837.742798 
	C1315.156128,833.805786 1315.876221,829.312500 1318.295532,826.328125 
	C1321.764038,822.049255 1320.955688,817.607910 1320.035034,813.522156 
	C1318.969971,808.795593 1319.917725,805.016418 1324.655640,803.078430 
	C1324.417603,800.424622 1323.907104,797.775330 1323.989868,795.144775 
	C1324.424316,781.333008 1325.414062,767.525940 1325.408936,753.717468 
	C1325.405029,743.290100 1324.144531,732.866028 1323.554932,722.434265 
	C1323.380981,719.358582 1323.527100,716.259216 1323.640869,713.174927 
	C1323.710571,711.286743 1324.820312,708.740601 1323.974121,707.695068 
	C1322.967285,706.451294 1320.364624,706.499390 1318.366821,705.964539 
	C1318.899780,702.752563 1319.604248,699.339355 1319.957275,695.890137 
	C1320.068359,694.806396 1319.489990,693.432068 1318.794189,692.521484 
	C1314.144165,686.435669 1311.021362,680.179199 1315.053345,672.435364 
	C1315.653931,671.281982 1315.903442,669.336548 1315.333496,668.294739 
	C1313.468140,664.885010 1311.095825,661.757019 1309.020874,658.456299 
	C1307.170654,655.513000 1306.479492,652.533630 1309.159790,650.184875 
	C1307.331299,648.161194 1304.740601,646.515076 1304.014404,644.266846 
	C1301.594604,636.774841 1296.870972,629.629150 1299.640015,621.080261 
	C1299.999878,619.969543 1299.351685,618.499390 1299.064575,617.219421 
	C1298.538208,614.871338 1297.284058,612.478577 1297.500977,610.216492 
	C1297.904297,606.010132 1296.085693,604.627441 1293.020142,604.851990 
	C1292.592773,602.677246 1292.233032,600.847107 1291.873291,599.016968 
	C1291.405151,599.066833 1290.937012,599.116699 1290.468994,599.166565 
	C1289.472412,600.535522 1288.475830,601.904419 1287.479370,603.273376 
	C1286.971924,603.108704 1286.464478,602.943970 1285.957031,602.779297 
	C1286.636108,599.800720 1287.315063,596.822205 1288.100586,593.376465 
	C1286.932739,593.270508 1285.174194,593.211914 1283.456055,592.917725 
	C1282.408813,592.738281 1280.882446,592.449707 1280.554199,591.749451 
	C1280.183105,590.957825 1280.634766,588.905884 1281.210571,588.690491 
	C1284.377197,587.506226 1282.936279,585.545044 1282.143799,583.903748 
	C1279.685669,578.813477 1276.789307,574.005676 1274.509399,568.741699 
	C1270.711182,559.972229 1264.183594,552.240356 1258.096680,544.639099 
	C1248.008301,532.041260 1237.367188,519.885620 1226.918945,507.577667 
	C1226.326172,506.879395 1225.368286,506.022797 1224.586548,506.028992 
	C1219.246460,506.071045 1216.749634,502.276215 1214.055908,498.631714 
	C1212.584229,496.640411 1211.286499,494.303314 1209.343262,492.916779 
	C1202.504272,488.036926 1195.639771,483.119598 1188.372803,478.931488 
	C1179.313354,473.710236 1170.156494,468.421906 1160.487793,464.543182 
	C1141.219238,456.813263 1121.689087,449.683533 1102.034912,442.986786 
	C1091.433716,439.374573 1080.352905,437.169617 1068.873047,434.168884 
	C1074.262695,429.605713 1079.716553,433.455780 1085.408936,432.911987 
	C1083.962036,431.366638 1082.570801,430.378998 1081.862061,429.032196 
	C1079.541016,424.621735 1076.681519,425.059601 1073.035278,427.340088 
	C1072.115601,427.915283 1070.308228,427.066833 1068.907837,426.878479 
	C1066.037109,426.492310 1062.103271,424.732117 1060.488159,425.977356 
	C1055.012085,430.199554 1054.289551,430.590057 1048.662720,426.894928 
	C1045.815063,425.024902 1042.716187,423.397064 1039.513916,422.284515 
	C1038.419189,421.904175 1035.702759,423.121887 1035.378296,424.137024 
	C1034.119507,428.076538 1031.469360,428.289886 1028.274902,427.581573 
	C1025.192627,426.898132 1022.169800,425.946991 1019.087830,425.261963 
	C1014.432861,424.227203 1009.697876,422.692657 1005.525085,426.642395 
	C1003.479675,421.866211 999.691162,420.360168 998.380493,423.588348 
	C996.509399,428.196838 993.002075,427.016937 989.888733,427.735626 
	C988.418884,423.467194 978.515381,421.347260 975.333435,424.227661 
	C973.853638,425.567261 971.917969,426.741211 969.999939,427.200165 
	C961.608154,429.208160 952.359314,426.550598 944.704651,432.058014 
	C943.470093,430.745667 942.418823,429.628082 941.367493,428.510498 
	C941.388916,429.005920 941.410278,429.501373 941.431702,429.996796 
	C935.831665,431.684265 930.306946,433.717499 924.609680,434.958649 
	C919.279846,436.119781 913.566223,435.758545 908.379822,437.284912 
	C899.621094,439.862671 891.139404,443.385498 882.552185,446.540955 
	C873.720764,449.786224 864.881470,453.012848 856.111450,456.417206 
	C855.234192,456.757690 854.561584,458.193085 854.222473,459.256989 
	C852.455688,464.798492 849.645081,466.635956 843.984375,465.713287 
	C843.078491,465.565613 842.187927,465.324005 841.249756,465.116852 
	C840.527039,472.098694 839.216797,473.226746 832.297058,473.187836 
	C832.807556,471.573639 833.318054,469.959442 833.768677,468.534363 
	C829.012573,470.508514 824.146545,471.825714 820.084656,474.407715 
	C815.848328,477.100647 812.386902,481.012634 808.136047,484.792267 
	C810.265076,485.620544 811.680786,486.171265 814.407227,487.231964 
	C807.610657,489.212738 802.036560,490.837219 796.154297,492.147949 
	C796.154297,492.147949 795.836914,491.843567 796.136963,491.234039 
	C797.592834,489.472870 799.048706,487.711700 800.504639,485.950500 
	C800.084106,485.617523 799.663574,485.284515 799.243103,484.951538 
	C777.659546,499.737000 765.460022,523.301208 747.075256,542.192566 
	C747.075256,539.684570 747.075195,538.087646 747.075195,536.490784 
	C747.075195,534.771362 747.075256,533.052002 747.075256,531.332581 
	C694.320557,589.153564 671.811890,659.086609 663.431213,734.951050 
	C659.157043,729.457031 661.573914,723.402466 661.653809,716.579773 
	C658.248291,722.072144 653.742249,725.699463 655.535950,732.510376 
	C656.513367,736.221558 655.364319,740.452393 655.466614,744.441406 
	C655.909729,761.718750 656.427551,778.994507 657.028809,796.267029 
	C657.083008,797.823853 657.929810,799.353088 658.408569,800.895142 
	C658.733826,800.818726 659.059021,800.742310 659.384277,800.665894 
	C660.275146,796.326050 661.166077,791.986206 662.102051,787.426697 
	C663.534241,787.594666 664.696960,787.730957 667.136169,788.016968 
	C667.451843,780.101990 667.627930,772.687622 668.088440,765.291077 
	C668.354553,761.016724 665.793274,755.885742 671.473206,752.966797 
	C672.023621,752.684021 671.777954,751.061462 672.129272,750.148254 
	C674.524292,743.922729 676.980164,737.720581 679.416382,731.510925 
	C680.039551,731.707214 680.662659,731.903564 681.285828,732.099854 
	C678.484985,745.148499 675.247131,758.071594 674.805237,771.536255 
	C674.354675,785.266418 671.307312,798.966187 674.661682,812.628296 
	C675.160583,812.646606 675.659485,812.664917 676.158386,812.683167 
	C676.513000,808.119507 676.867615,803.555847 677.222229,798.992188 
	C677.963379,799.019897 678.704529,799.047607 679.445679,799.075317 
	C679.963318,805.648315 681.442017,812.322693 680.762695,818.769531 
	C679.849731,827.432678 681.335999,835.519897 683.420715,843.701050 
	C683.747864,844.984741 684.020264,846.316406 684.061340,847.633911 
	C684.517029,862.232727 685.671082,876.657227 693.093140,889.783203 
	C694.138184,891.631348 694.497131,893.860291 695.233093,895.891479 
	C700.986694,911.769287 703.280701,928.892639 712.456360,943.531860 
	C715.183472,942.285950 721.263733,944.509766 721.659973,947.351624 
	C721.989502,949.714905 721.947449,953.890076 720.816467,954.382263 
	C716.653564,956.193726 717.765381,958.457214 719.747192,960.445862 
	C728.290039,969.018616 737.041138,977.383972 745.743164,985.797058 
	C745.876282,985.925659 746.350647,985.701233 747.901062,985.407715 
	C747.110168,982.034546 746.842468,978.484680 745.464783,975.436523 
	C739.686035,962.651184 730.442017,951.687927 725.831360,938.244690 
	C724.650208,934.800964 722.508301,931.677795 721.416016,928.215454 
	C720.535522,925.424377 720.571533,922.344116 720.200928,919.392151 
	C720.628845,919.322754 721.056824,919.253357 721.484741,919.183960 
	C725.157654,925.758911 728.830566,932.333862 732.697754,939.256653 
	C732.603027,939.311340 731.521118,939.935730 730.579956,940.478882 
	C735.550537,947.647278 742.693481,952.662170 741.439392,962.102844 
	C741.773132,962.220703 742.106812,962.338501 743.189392,962.209717 
	C743.783386,963.572266 744.342590,964.951233 744.979065,966.293579 
	C746.026001,968.501465 746.631531,972.045532 748.284424,972.642883 
	C755.203735,975.143372 759.025146,979.862793 761.139709,986.291382 
	C763.123230,987.297119 765.742920,988.549866 766.042786,990.219299 
	C767.046204,995.805908 770.117737,999.531860 774.675171,1002.414978 
	C779.156677,1005.250000 782.755493,1008.715027 783.952698,1014.238525 
	C784.112671,1014.976501 786.362671,1015.817932 787.492432,1015.640564 
	C788.749512,1015.443176 789.832214,1014.134766 791.766052,1012.758118 
	C787.822449,1007.502930 784.073425,1002.506958 780.204590,997.351440 
	C781.976746,997.351440 783.596680,997.351440 785.216553,997.351440 
	C785.390442,996.931763 785.564270,996.512085 785.738098,996.092407 
	C782.794861,994.045898 779.851624,991.999329 776.844360,989.908264 
	C776.262634,991.081055 775.834656,991.944031 775.114807,993.395325 
	C773.676575,991.077515 772.197876,989.506653 771.777222,987.690674 
	C771.550415,986.711914 773.135498,985.313416 774.066406,984.569702 
	C774.328125,984.529053 774.589905,984.488403 774.851624,984.447754 
	C774.630371,984.236389 774.409058,984.025085 774.080139,983.140625 
	C770.004089,979.484253 765.927856,975.828064 761.851990,972.171509 
	C757.004456,967.822754 753.111938,963.026123 754.054565,955.453857 
	C756.383728,955.453857 758.550293,955.453857 760.108521,955.453857 
	C760.787231,958.189026 760.620667,961.157471 762.004211,962.400818 
	C765.922546,965.921875 770.657471,968.524475 774.666077,971.960815 
	C775.849976,972.975708 775.688721,975.559692 776.143860,977.424622 
	C776.363770,976.880615 776.583679,976.336609 776.803589,975.792603 
	C780.490906,980.492432 783.970032,985.377014 787.927856,989.836731 
	C791.431030,993.784180 795.289246,997.467712 799.311768,1000.890442 
	C804.565186,1005.360596 810.240051,1009.333435 815.535095,1013.757629 
	C819.712341,1017.247925 823.662537,1021.023071 827.545776,1024.842285 
	C828.444824,1025.726440 828.660461,1027.305420 829.468628,1029.225220 
	C832.251831,1030.656982 835.863892,1032.515259 838.965332,1034.110840 
	C838.965332,1035.364624 838.653992,1036.653931 839.011230,1036.878174 
	C846.321106,1041.467407 853.356995,1046.751953 861.210083,1050.119263 
	C865.894165,1052.127686 869.503601,1053.592407 872.888794,1058.029053 
	C875.750916,1061.780273 882.258484,1062.749756 887.152283,1064.951050 
	C891.319580,1066.825562 896.529907,1067.728638 899.401978,1070.810547 
	C903.434692,1075.137939 908.113831,1074.708252 912.455627,1074.391846 
	C917.577209,1074.018921 921.312256,1075.487427 922.469238,1080.303589 
	C929.180908,1081.143555 935.781494,1081.852661 942.343201,1082.824585 
	C948.755859,1083.774292 955.121338,1085.038696 961.521423,1086.079224 
	C968.085571,1087.146606 974.638855,1088.395142 981.248108,1089.037598 
	C987.689270,1089.663574 994.563904,1091.048462 1000.574158,1089.493896 
	C1007.246704,1087.768311 1012.398804,1094.294434 1018.547424,1092.283936 
	C1018.616394,1091.783325 1018.685303,1091.282593 1018.754272,1090.781860 
	C1014.712280,1089.436646 1010.670227,1088.091309 1006.628235,1086.746094 
	C1006.684998,1086.409668 1006.741760,1086.073120 1006.798523,1085.736694 
	C1011.966248,1085.736694 1017.133911,1085.736694 1022.960876,1085.736694 
	C1023.311279,1089.624756 1026.602661,1087.987915 1029.305908,1087.908936 
	C1036.888794,1087.687500 1044.188354,1084.706787 1052.095825,1086.659912 
	C1056.050049,1087.636597 1060.630981,1086.374390 1064.867920,1085.728271 
	C1066.141235,1085.534058 1067.210693,1084.003418 1068.373413,1083.084961 
	C1068.135742,1082.687866 1067.898071,1082.290894 1067.660400,1081.893799 
	C1065.613037,1082.074951 1063.565552,1082.255981 1061.252563,1082.460571 
	C1061.635498,1080.809204 1061.953247,1079.438965 1062.591919,1076.684448 
	C1065.497803,1078.460938 1068.026001,1079.467407 1069.815186,1081.225708 
	C1072.552368,1083.915649 1075.879761,1084.156494 1078.460327,1081.149048 
	C1076.152466,1081.037354 1073.882935,1080.927490 1071.613525,1080.817627 
	C1080.603271,1076.900635 1089.711914,1074.856323 1099.277954,1075.297363 
	C1100.814453,1075.368286 1102.437622,1075.127197 1103.914307,1074.679443 
	C1113.409546,1071.800415 1122.954834,1069.052979 1132.317993,1065.786865 
	C1137.347656,1064.032349 1143.497314,1066.866577 1147.617188,1062.072632 
	C1151.513062,1057.539062 1156.829834,1056.134155 1162.115723,1053.950562 
	C1184.532227,1044.690918 1206.988037,1035.342773 1226.472046,1020.409302 
	C1227.429565,1019.675415 1228.012939,1018.461304 1228.797241,1017.492615 
	C1230.620728,1015.240540 1232.102783,1012.501465 1234.377808,1010.875427 
	C1237.729736,1008.479553 1241.822876,1007.139404 1245.271606,1004.853760 
	C1247.676636,1003.259827 1250.588867,1001.174683 1251.382324,998.701904 
	C1252.554932,995.047363 1252.386597,991.308289 1257.921875,993.022095 
	C1258.409058,993.172974 1259.511353,992.010742 1260.036743,991.255859 
	C1263.449951,986.349670 1267.110107,981.570435 1270.016724,976.373413 
	C1271.714478,973.337891 1272.166016,969.605347 1273.843140,965.978088 
	C1278.673462,962.052002 1284.363403,958.804138 1288.125610,954.035522 
	C1293.328613,947.440491 1297.080200,939.700256 1301.850830,932.069153 
	C1302.017090,931.739746 1302.183472,931.410339 1302.774658,930.675964 
	C1302.240967,930.795166 1301.707153,930.914368 1300.893188,931.375000 
M1304.206177,926.971252 
	C1303.846436,927.512146 1303.486694,928.053101 1303.126953,928.594055 
	C1303.341553,928.734802 1303.556152,928.875549 1303.770752,929.016357 
	C1304.203369,928.363831 1304.635864,927.711243 1305.530273,926.850159 
	C1305.526367,926.624084 1305.522461,926.398071 1305.518677,926.171997 
	C1305.284546,926.387146 1305.050293,926.602356 1304.206177,926.971252 
M822.941528,1074.562012 
	C825.954834,1076.278564 829.043762,1077.876343 831.965271,1079.737061 
	C837.519775,1083.275146 842.820007,1087.237915 848.512756,1090.527710 
	C857.987915,1096.003174 867.687683,1101.089966 877.298950,1106.329346 
	C877.871338,1106.641357 878.479065,1106.913696 879.100769,1107.105957 
	C885.883362,1109.203857 892.622742,1111.465942 899.476807,1113.298706 
	C903.808044,1114.457031 908.312988,1114.966064 912.740051,1115.766357 
	C912.943359,1114.892700 913.146667,1114.019165 913.350037,1113.145630 
	C911.893188,1112.733032 910.418335,1112.374023 908.984131,1111.893799 
	C907.300537,1111.330322 904.161560,1110.414673 904.217590,1110.076050 
	C904.823730,1106.412964 901.982910,1106.013794 899.855713,1105.006836 
	C887.830383,1099.314697 875.677551,1093.880371 863.771484,1087.950073 
	C847.706299,1079.947998 831.210815,1072.615601 817.399414,1060.755005 
	C810.982971,1055.244873 804.618591,1049.674316 797.806274,1043.762939 
	C796.382507,1049.706543 792.207520,1046.048950 789.236145,1046.233032 
	C792.181152,1050.588623 794.986267,1054.737305 797.988220,1059.177124 
	C799.243164,1058.639893 800.878845,1057.939819 802.564026,1057.218384 
	C803.724609,1059.103638 804.459351,1061.454834 806.057251,1062.680664 
	C811.322388,1066.719482 816.899841,1070.350952 822.941528,1074.562012 
M1314.804443,911.417358 
	C1311.890137,915.797607 1308.975830,920.177856 1306.061523,924.558167 
	C1306.675415,924.940796 1307.289429,925.323425 1307.903320,925.706055 
	C1311.340820,920.296997 1314.778442,914.888000 1318.215942,909.478943 
	C1317.689941,909.141968 1317.163940,908.804932 1316.637817,908.467957 
	C1316.127563,909.251709 1315.617310,910.035461 1314.804443,911.417358 
M594.163879,703.869202 
	C594.204285,704.341064 594.244690,704.812866 594.285034,705.284668 
	C594.475525,705.249939 594.665955,705.215210 594.856384,705.180420 
	C594.737183,704.589172 594.617981,703.997864 594.163879,703.869202 
M937.867065,428.764893 
	C938.169067,428.688904 938.471069,428.612915 938.773010,428.536865 
	C938.349304,428.504364 937.925598,428.471863 937.867065,428.764893 
M1283.518066,589.195618 
	C1283.518066,589.195618 1283.400513,589.543762 1283.400513,589.543762 
	C1283.400513,589.543762 1283.662964,589.448975 1283.518066,589.195618 
M787.259216,1045.479858 
	C787.454407,1045.502686 787.649597,1045.525513 787.844788,1045.548462 
	C787.756653,1045.456421 787.668518,1045.364380 787.259216,1045.479858 
M1086.428833,433.751709 
	C1086.546387,433.662567 1086.663940,433.573425 1086.781372,433.484253 
	C1086.675049,433.382202 1086.572876,433.205353 1086.461182,433.199066 
	C1086.348755,433.192719 1086.226807,433.356049 1086.428833,433.751709 
z"/>
<path fill="#FEFFFF" opacity="1.000000" stroke="none" 
	d="
M773.903076,984.104370 
	C773.135498,985.313416 771.550415,986.711914 771.777222,987.690674 
	C772.197876,989.506653 773.676575,991.077515 775.114807,993.395325 
	C775.834656,991.944031 776.262634,991.081055 776.844360,989.908264 
	C779.851624,991.999329 782.794861,994.045898 785.738098,996.092407 
	C785.564270,996.512085 785.390442,996.931763 785.216553,997.351440 
	C783.596680,997.351440 781.976746,997.351440 780.204590,997.351440 
	C784.073425,1002.506958 787.822449,1007.502930 791.766052,1012.758118 
	C789.832214,1014.134766 788.749512,1015.443176 787.492432,1015.640564 
	C786.362671,1015.817932 784.112671,1014.976501 783.952698,1014.238525 
	C782.755493,1008.715027 779.156677,1005.250000 774.675171,1002.414978 
	C770.117737,999.531860 767.046204,995.805908 766.042786,990.219299 
	C765.742920,988.549866 763.123230,987.297119 761.139709,986.291382 
	C759.025146,979.862793 755.203735,975.143372 748.284424,972.642883 
	C746.631531,972.045532 746.026001,968.501465 744.979065,966.293579 
	C744.342590,964.951233 743.783386,963.572266 742.664429,962.175781 
	C742.139465,962.141846 741.825378,961.840393 741.825378,961.840393 
	C742.693481,952.662170 735.550537,947.647278 730.579956,940.478882 
	C731.521118,939.935730 732.603027,939.311340 732.697754,939.256653 
	C728.830566,932.333862 725.157654,925.758911 721.484741,919.183960 
	C721.056824,919.253357 720.628845,919.322754 720.200928,919.392151 
	C720.571533,922.344116 720.535522,925.424377 721.416016,928.215454 
	C722.508301,931.677795 724.650208,934.800964 725.831360,938.244690 
	C730.442017,951.687927 739.686035,962.651184 745.464783,975.436523 
	C746.842468,978.484680 747.110168,982.034546 747.901062,985.407715 
	C746.350647,985.701233 745.876282,985.925659 745.743164,985.797058 
	C737.041138,977.383972 728.290039,969.018616 719.747192,960.445862 
	C717.765381,958.457214 716.653564,956.193726 720.816467,954.382263 
	C721.947449,953.890076 721.989502,949.714905 721.659973,947.351624 
	C721.263733,944.509766 715.183472,942.285950 712.456360,943.531860 
	C703.280701,928.892639 700.986694,911.769287 695.233093,895.891479 
	C694.497131,893.860291 694.138184,891.631348 693.093140,889.783203 
	C685.671082,876.657227 684.517029,862.232727 684.061340,847.633911 
	C684.020264,846.316406 683.747864,844.984741 683.420715,843.701050 
	C681.335999,835.519897 679.849731,827.432678 680.762695,818.769531 
	C681.442017,812.322693 679.963318,805.648315 679.445679,799.075317 
	C678.704529,799.047607 677.963379,799.019897 677.222229,798.992188 
	C676.867615,803.555847 676.513000,808.119507 676.158386,812.683167 
	C675.659485,812.664917 675.160583,812.646606 674.661682,812.628296 
	C671.307312,798.966187 674.354675,785.266418 674.805237,771.536255 
	C675.247131,758.071594 678.484985,745.148499 681.285828,732.099854 
	C680.662659,731.903564 680.039551,731.707214 679.416382,731.510925 
	C676.980164,737.720581 674.524292,743.922729 672.129272,750.148254 
	C671.777954,751.061462 672.023621,752.684021 671.473206,752.966797 
	C665.793274,755.885742 668.354553,761.016724 668.088440,765.291077 
	C667.627930,772.687622 667.451843,780.101990 667.136169,788.016968 
	C664.696960,787.730957 663.534241,787.594666 662.102051,787.426697 
	C661.166077,791.986206 660.275146,796.326050 659.384277,800.665894 
	C659.059021,800.742310 658.733826,800.818726 658.408569,800.895142 
	C657.929810,799.353088 657.083008,797.823853 657.028809,796.267029 
	C656.427551,778.994507 655.909729,761.718750 655.466614,744.441406 
	C655.364319,740.452393 656.513367,736.221558 655.535950,732.510376 
	C653.742249,725.699463 658.248291,722.072144 661.653809,716.579773 
	C661.573914,723.402466 659.157043,729.457031 663.431213,734.951050 
	C671.811890,659.086609 694.320557,589.153564 747.075256,531.332581 
	C747.075256,533.052002 747.075195,534.771362 747.075195,536.490784 
	C747.075195,538.087646 747.075256,539.684570 747.075256,542.192566 
	C765.460022,523.301208 777.659546,499.737000 799.243103,484.951538 
	C799.663574,485.284515 800.084106,485.617523 800.504639,485.950500 
	C799.048706,487.711700 797.592834,489.472870 795.747070,491.621521 
	C795.186646,492.287415 795.016113,492.565826 794.592590,492.941833 
	C794.323669,493.271332 794.307678,493.503204 794.291748,493.735107 
	C794.595337,493.562256 794.898865,493.389374 795.449585,493.163330 
	C795.951965,492.893982 796.207214,492.677826 796.462463,492.461731 
	C802.036560,490.837219 807.610657,489.212738 814.407227,487.231964 
	C811.680786,486.171265 810.265076,485.620544 808.136047,484.792267 
	C812.386902,481.012634 815.848328,477.100647 820.084656,474.407715 
	C824.146545,471.825714 829.012573,470.508514 833.768677,468.534363 
	C833.318054,469.959442 832.807556,471.573639 832.301270,473.190552 
	C839.216797,473.226746 840.527039,472.098694 841.249756,465.116852 
	C842.187927,465.324005 843.078491,465.565613 843.984375,465.713287 
	C849.645081,466.635956 852.455688,464.798492 854.222473,459.256989 
	C854.561584,458.193085 855.234192,456.757690 856.111450,456.417206 
	C864.881470,453.012848 873.720764,449.786224 882.552185,446.540955 
	C891.139404,443.385498 899.621094,439.862671 908.379822,437.284912 
	C913.566223,435.758545 919.279846,436.119781 924.609680,434.958649 
	C930.306946,433.717499 935.831665,431.684265 941.431702,429.996796 
	C941.410278,429.501373 941.388916,429.005920 941.367493,428.510498 
	C942.418823,429.628082 943.470093,430.745667 944.704651,432.058014 
	C952.359314,426.550598 961.608154,429.208160 969.999939,427.200165 
	C971.917969,426.741211 973.853638,425.567261 975.333435,424.227661 
	C978.515381,421.347260 988.418884,423.467194 989.888733,427.735626 
	C993.002075,427.016937 996.509399,428.196838 998.380493,423.588348 
	C999.691162,420.360168 1003.479675,421.866211 1005.525085,426.642395 
	C1009.697876,422.692657 1014.432861,424.227203 1019.087830,425.261963 
	C1022.169800,425.946991 1025.192627,426.898132 1028.274902,427.581573 
	C1031.469360,428.289886 1034.119507,428.076538 1035.378296,424.137024 
	C1035.702759,423.121887 1038.419189,421.904175 1039.513916,422.284515 
	C1042.716187,423.397064 1045.815063,425.024902 1048.662720,426.894928 
	C1054.289551,430.590057 1055.012085,430.199554 1060.488159,425.977356 
	C1062.103271,424.732117 1066.037109,426.492310 1068.907837,426.878479 
	C1070.308228,427.066833 1072.115601,427.915283 1073.035278,427.340088 
	C1076.681519,425.059601 1079.541016,424.621735 1081.862061,429.032196 
	C1082.570801,430.378998 1083.962036,431.366638 1085.408936,432.911987 
	C1079.716553,433.455780 1074.262695,429.605713 1068.873047,434.168884 
	C1080.352905,437.169617 1091.433716,439.374573 1102.034912,442.986786 
	C1121.689087,449.683533 1141.219238,456.813263 1160.487793,464.543182 
	C1170.156494,468.421906 1179.313354,473.710236 1188.372803,478.931488 
	C1195.639771,483.119598 1202.504272,488.036926 1209.343262,492.916779 
	C1211.286499,494.303314 1212.584229,496.640411 1214.055908,498.631714 
	C1216.749634,502.276215 1219.246460,506.071045 1224.586548,506.028992 
	C1225.368286,506.022797 1226.326172,506.879395 1226.918945,507.577667 
	C1237.367188,519.885620 1248.008301,532.041260 1258.096680,544.639099 
	C1264.183594,552.240356 1270.711182,559.972229 1274.509399,568.741699 
	C1276.789307,574.005676 1279.685669,578.813477 1282.143799,583.903748 
	C1282.936279,585.545044 1284.377197,587.506226 1281.210571,588.690491 
	C1280.634766,588.905884 1280.183105,590.957825 1280.554199,591.749451 
	C1280.882446,592.449707 1282.408813,592.738281 1283.456055,592.917725 
	C1285.174194,593.211914 1286.932739,593.270508 1288.100586,593.376465 
	C1287.315063,596.822205 1286.636108,599.800720 1285.957031,602.779297 
	C1286.464478,602.943970 1286.971924,603.108704 1287.479370,603.273376 
	C1288.475830,601.904419 1289.472412,600.535522 1290.468994,599.166565 
	C1290.937012,599.116699 1291.405151,599.066833 1291.873291,599.016968 
	C1292.233032,600.847107 1292.592773,602.677246 1293.020142,604.851990 
	C1296.085693,604.627441 1297.904297,606.010132 1297.500977,610.216492 
	C1297.284058,612.478577 1298.538208,614.871338 1299.064575,617.219421 
	C1299.351685,618.499390 1299.999878,619.969543 1299.640015,621.080261 
	C1296.870972,629.629150 1301.594604,636.774841 1304.014404,644.266846 
	C1304.740601,646.515076 1307.331299,648.161194 1309.159790,650.184875 
	C1306.479492,652.533630 1307.170654,655.513000 1309.020874,658.456299 
	C1311.095825,661.757019 1313.468140,664.885010 1315.333496,668.294739 
	C1315.903442,669.336548 1315.653931,671.281982 1315.053345,672.435364 
	C1311.021362,680.179199 1314.144165,686.435669 1318.794189,692.521484 
	C1319.489990,693.432068 1320.068359,694.806396 1319.957275,695.890137 
	C1319.604248,699.339355 1318.899780,702.752563 1318.366821,705.964539 
	C1320.364624,706.499390 1322.967285,706.451294 1323.974121,707.695068 
	C1324.820312,708.740601 1323.710571,711.286743 1323.640869,713.174927 
	C1323.527100,716.259216 1323.380981,719.358582 1323.554932,722.434265 
	C1324.144531,732.866028 1325.405029,743.290100 1325.408936,753.717468 
	C1325.414062,767.525940 1324.424316,781.333008 1323.989868,795.144775 
	C1323.907104,797.775330 1324.417603,800.424622 1324.655640,803.078430 
	C1319.917725,805.016418 1318.969971,808.795593 1320.035034,813.522156 
	C1320.955688,817.607910 1321.764038,822.049255 1318.295532,826.328125 
	C1315.876221,829.312500 1315.156128,833.805786 1314.128418,837.742798 
	C1313.380005,840.609253 1313.690552,843.753723 1312.930542,846.615295 
	C1312.267822,849.109802 1311.368530,852.653809 1309.529663,853.521545 
	C1303.232666,856.493103 1303.578735,862.091187 1301.910156,867.437744 
	C1299.508545,875.132324 1296.506714,883.254700 1291.480225,889.297241 
	C1288.164795,893.282959 1286.197632,896.784973 1285.553711,901.712341 
	C1284.600952,901.545288 1283.661377,901.380554 1283.813477,901.407227 
	C1279.881226,906.483093 1276.040894,910.976440 1272.732422,915.832031 
	C1268.848389,921.532288 1265.583374,927.651917 1261.753174,933.391663 
	C1258.817017,937.791748 1255.513672,941.959229 1252.204834,946.095215 
	C1248.282227,950.998169 1244.178711,955.756409 1239.994629,960.767883 
	C1238.289673,959.624939 1236.355347,958.549194 1234.546631,962.534912 
	C1232.236450,967.625122 1228.939941,972.267639 1225.966309,977.275391 
	C1219.085205,977.597351 1219.085205,977.597351 1221.714844,985.073853 
	C1228.359741,984.881042 1232.530762,980.813538 1236.179321,975.851746 
	C1240.104614,970.513916 1244.084351,965.216064 1248.497681,959.926147 
	C1248.955078,959.951538 1249.235352,960.227966 1249.235352,960.227966 
	C1248.788696,961.517273 1248.342041,962.806519 1247.895508,964.095825 
	C1248.283081,964.453369 1248.670654,964.810913 1249.058228,965.168396 
	C1251.274048,963.541077 1253.489868,961.913757 1256.258179,959.880615 
	C1254.797852,959.256409 1254.046875,958.935425 1253.051392,958.509949 
	C1254.683350,955.482544 1256.286011,952.509338 1257.888794,949.536133 
	C1258.301392,949.693665 1258.713989,949.851257 1259.126587,950.008789 
	C1259.126587,951.513733 1259.126587,953.018616 1259.126587,955.970825 
	C1264.572510,950.706299 1269.273560,946.161865 1274.163818,941.434570 
	C1275.466797,943.186035 1276.103394,944.150146 1276.848267,945.021912 
	C1278.748901,947.246521 1278.110229,948.293701 1275.715942,949.995850 
	C1272.078735,952.581726 1268.454346,955.648010 1265.980957,959.294617 
	C1262.675049,964.168396 1260.175781,969.462097 1253.659912,970.745300 
	C1253.051025,970.865234 1252.031250,971.383728 1252.027954,971.724731 
	C1251.970825,977.867371 1245.264526,978.009827 1242.881104,981.974731 
	C1241.104980,984.929504 1239.514526,987.995850 1237.841431,991.012573 
	C1238.502075,991.549133 1239.162842,992.085632 1239.823608,992.622192 
	C1247.140747,986.695801 1254.457764,980.769470 1262.494141,974.260559 
	C1260.126343,973.156067 1259.210571,972.728882 1257.286743,971.831482 
	C1259.237549,971.303528 1260.409668,970.552490 1261.193604,970.844299 
	C1266.459839,972.803955 1269.606201,970.294250 1272.481812,965.991455 
	C1272.902832,965.924133 1273.178345,966.186401 1273.178223,966.186401 
	C1272.166016,969.605347 1271.714478,973.337891 1270.016724,976.373413 
	C1267.110107,981.570435 1263.449951,986.349670 1260.036743,991.255859 
	C1259.511353,992.010742 1258.409058,993.172974 1257.921875,993.022095 
	C1252.386597,991.308289 1252.554932,995.047363 1251.382324,998.701904 
	C1250.588867,1001.174683 1247.676636,1003.259827 1245.271606,1004.853760 
	C1241.822876,1007.139404 1237.729736,1008.479553 1234.377808,1010.875427 
	C1232.102783,1012.501465 1230.620728,1015.240540 1228.797241,1017.492615 
	C1228.012939,1018.461304 1227.429565,1019.675415 1226.472046,1020.409302 
	C1206.988037,1035.342773 1184.532227,1044.690918 1162.115723,1053.950562 
	C1156.829834,1056.134155 1151.513062,1057.539062 1147.617188,1062.072632 
	C1143.497314,1066.866577 1137.347656,1064.032349 1132.317993,1065.786865 
	C1122.954834,1069.052979 1113.409546,1071.800415 1103.914307,1074.679443 
	C1102.437622,1075.127197 1100.814453,1075.368286 1099.277954,1075.297363 
	C1089.711914,1074.856323 1080.603271,1076.900635 1071.613525,1080.817627 
	C1073.882935,1080.927490 1076.152466,1081.037354 1078.460327,1081.149048 
	C1075.879761,1084.156494 1072.552368,1083.915649 1069.815186,1081.225708 
	C1068.026001,1079.467407 1065.497803,1078.460938 1062.591919,1076.684448 
	C1061.953247,1079.438965 1061.635498,1080.809204 1061.252563,1082.460571 
	C1063.565552,1082.255981 1065.613037,1082.074951 1067.660400,1081.893799 
	C1067.898071,1082.290894 1068.135742,1082.687866 1068.373413,1083.084961 
	C1067.210693,1084.003418 1066.141235,1085.534058 1064.867920,1085.728271 
	C1060.630981,1086.374390 1056.050049,1087.636597 1052.095825,1086.659912 
	C1044.188354,1084.706787 1036.888794,1087.687500 1029.305908,1087.908936 
	C1026.602661,1087.987915 1023.311279,1089.624756 1022.960876,1085.736694 
	C1017.133911,1085.736694 1011.966248,1085.736694 1006.798523,1085.736694 
	C1006.741760,1086.073120 1006.684998,1086.409668 1006.628235,1086.746094 
	C1010.670227,1088.091309 1014.712280,1089.436646 1018.754272,1090.781860 
	C1018.685303,1091.282593 1018.616394,1091.783325 1018.547424,1092.283936 
	C1012.398804,1094.294434 1007.246704,1087.768311 1000.574158,1089.493896 
	C994.563904,1091.048462 987.689270,1089.663574 981.248108,1089.037598 
	C974.638855,1088.395142 968.085571,1087.146606 961.521423,1086.079224 
	C955.121338,1085.038696 948.755859,1083.774292 942.343201,1082.824585 
	C935.781494,1081.852661 929.180908,1081.143555 922.469238,1080.303589 
	C921.312256,1075.487427 917.577209,1074.018921 912.455627,1074.391846 
	C908.113831,1074.708252 903.434692,1075.137939 899.401978,1070.810547 
	C896.529907,1067.728638 891.319580,1066.825562 887.152283,1064.951050 
	C882.258484,1062.749756 875.750916,1061.780273 872.888794,1058.029053 
	C869.503601,1053.592407 865.894165,1052.127686 861.210083,1050.119263 
	C853.356995,1046.751953 846.321106,1041.467407 839.011230,1036.878174 
	C838.653992,1036.653931 838.965332,1035.364624 838.965332,1034.110840 
	C835.863892,1032.515259 832.251831,1030.656982 829.468628,1029.225220 
	C828.660461,1027.305420 828.444824,1025.726440 827.545776,1024.842285 
	C823.662537,1021.023071 819.712341,1017.247925 815.535095,1013.757629 
	C810.240051,1009.333435 804.565186,1005.360596 799.311768,1000.890442 
	C795.289246,997.467712 791.431030,993.784180 787.927856,989.836731 
	C783.970032,985.377014 780.490906,980.492432 776.803589,975.792603 
	C776.583679,976.336609 776.363770,976.880615 776.143860,977.424622 
	C775.688721,975.559692 775.849976,972.975708 774.666077,971.960815 
	C770.657471,968.524475 765.922546,965.921875 762.004211,962.400818 
	C760.620667,961.157471 760.787231,958.189026 760.108521,955.453857 
	C758.550293,955.453857 756.383728,955.453857 754.054565,955.453857 
	C753.111938,963.026123 757.004456,967.822754 761.851990,972.171509 
	C765.927856,975.828064 770.004089,979.484253 774.062378,983.549438 
	C774.044678,983.958313 773.903076,984.104370 773.903076,984.104370 
M1229.065674,997.880310 
	C1225.684814,998.904358 1221.946045,999.338196 1219.019653,1001.112000 
	C1215.839478,1003.039612 1213.543823,1006.371765 1210.600586,1008.769958 
	C1209.304932,1009.825623 1207.361938,1010.086487 1205.816284,1010.669189 
	C1199.424927,1014.937378 1193.069946,1019.181396 1185.645264,1024.139771 
	C1188.653320,1023.974426 1190.546997,1024.390869 1191.885742,1023.712463 
	C1200.670654,1019.261353 1209.611694,1015.013123 1217.932251,1009.791565 
	C1222.601440,1006.861450 1226.180176,1002.193604 1230.902832,998.134827 
	C1233.378906,996.373901 1235.854980,994.612915 1239.510376,992.013123 
	C1234.654663,993.072144 1231.359863,993.790710 1227.633667,994.603333 
	C1228.515015,995.890137 1229.213623,996.909851 1229.065674,997.880310 
M815.942871,868.749146 
	C816.039124,873.078613 815.110046,877.767456 816.472412,881.653076 
	C818.505859,887.453125 817.306519,892.734314 816.534607,898.292175 
	C816.274963,900.161743 816.190613,902.657837 817.190857,903.998901 
	C822.331055,910.890015 827.192810,918.195862 833.392334,924.041138 
	C842.610840,932.732849 854.696533,933.376465 866.727356,933.020691 
	C879.702271,932.636963 892.442810,933.241150 903.118225,942.107788 
	C904.410522,940.245728 905.463074,938.729187 905.821106,938.213257 
	C908.099304,942.380798 910.398010,946.585876 912.696716,950.791016 
	C913.255615,950.745728 913.814575,950.700439 914.373474,950.655151 
	C915.491516,943.258484 916.609497,935.861816 917.727539,928.465149 
	C917.924133,928.447388 918.120667,928.429565 918.317261,928.411743 
	C919.402283,935.701355 920.487305,942.990967 921.672058,950.950378 
	C923.015808,945.230652 924.114624,940.553345 925.213501,935.875977 
	C925.739990,935.977722 926.266479,936.079407 926.793030,936.181152 
	C927.461853,940.382019 928.130737,944.582947 928.848755,949.092651 
	C933.976562,943.603882 934.353943,943.518677 940.135376,947.947205 
	C943.105164,950.221985 945.686340,951.440613 948.759155,947.920044 
	C949.479553,947.094543 952.437683,946.939087 953.232239,947.684509 
	C956.615234,950.857544 959.513672,951.521790 961.413330,948.335327 
	C964.264282,949.370361 966.392578,950.680542 968.595642,950.821350 
	C972.220093,951.052795 975.890930,950.403381 979.545715,950.343750 
	C989.824890,950.175964 1000.105713,950.107056 1010.386169,950.028259 
	C1012.818359,950.009583 1015.261536,950.269653 1017.682434,950.121094 
	C1032.446899,949.214722 1047.194824,947.749023 1061.970337,947.397461 
	C1077.776733,947.021484 1093.620361,948.160767 1109.424194,947.745056 
	C1128.198364,947.251221 1146.565552,944.445129 1162.718018,933.592773 
	C1165.746948,931.557800 1168.973877,929.712158 1172.326782,928.292358 
	C1176.263794,926.625305 1178.528198,923.944275 1178.996704,919.786621 
	C1181.023315,901.797974 1183.724609,883.846863 1184.797241,865.799805 
	C1185.922852,846.863647 1185.406738,827.832581 1185.721191,808.844849 
	C1186.192749,780.363098 1186.647827,751.880310 1187.319458,723.402832 
	C1188.223022,685.092529 1188.773071,646.802307 1185.036499,608.582642 
	C1183.510986,592.979431 1179.941528,578.087891 1171.242310,564.771179 
	C1163.045898,552.223999 1153.630371,548.669861 1139.145264,552.728760 
	C1135.154419,553.846985 1131.255981,555.502686 1127.194580,556.125244 
	C1107.495117,559.144592 1087.757935,561.920105 1068.027466,564.734985 
	C1053.742310,566.773010 1039.477051,570.107849 1025.149048,570.424866 
	C1001.532288,570.947632 977.874878,569.316895 954.229126,568.924438 
	C924.113464,568.424500 894.242615,570.741455 865.714111,581.139404 
	C852.526855,585.945740 839.910339,592.392822 827.246826,598.532776 
	C819.910645,602.089844 815.457886,608.617310 814.320801,616.540955 
	C813.315002,623.549438 812.861755,630.868958 813.699524,637.867310 
	C816.346619,659.979675 819.711426,682.006104 822.813904,704.063599 
	C822.920959,704.824951 823.015564,705.678223 823.415894,706.293701 
	C826.535278,711.091064 829.826233,715.780457 832.815857,720.655518 
	C833.411926,721.627441 833.130432,723.280518 832.936951,724.572021 
	C830.465881,741.067444 831.851135,757.474243 834.344910,773.799866 
	C834.874084,777.264526 834.093750,779.145142 831.187927,780.600769 
	C826.316101,783.041199 823.877075,787.259583 822.963379,792.433472 
	C822.474060,795.204712 822.501465,798.081116 821.852844,800.804626 
	C821.496216,802.302307 820.349976,804.643127 819.336975,804.765808 
	C815.883484,805.184265 815.993286,807.362427 815.920959,809.771057 
	C815.598389,820.510620 815.013367,831.248352 814.974365,841.988403 
	C814.943115,850.594666 815.561035,859.203308 815.942871,868.749146 
M725.051575,955.133545 
	C724.208374,955.531128 723.365173,955.928711 721.621277,956.750977 
	C724.978577,959.191650 727.759033,961.213074 731.511597,963.941101 
	C730.800476,958.927795 730.034424,955.710144 725.051575,955.133545 
z"/>
<path fill="#F9FBFF" opacity="1.000000" stroke="none" 
	d="
M822.649414,1074.350464 
	C816.899841,1070.350952 811.322388,1066.719482 806.057251,1062.680664 
	C804.459351,1061.454834 803.724609,1059.103638 802.564026,1057.218384 
	C800.878845,1057.939819 799.243164,1058.639893 797.988220,1059.177124 
	C794.986267,1054.737305 792.181152,1050.588623 789.236145,1046.233032 
	C792.207520,1046.048950 796.382507,1049.706543 797.806274,1043.762939 
	C804.618591,1049.674316 810.982971,1055.244873 817.399414,1060.755005 
	C831.210815,1072.615601 847.706299,1079.947998 863.771484,1087.950073 
	C875.677551,1093.880371 887.830383,1099.314697 899.855713,1105.006836 
	C901.982910,1106.013794 904.823730,1106.412964 904.217590,1110.076050 
	C904.161560,1110.414673 907.300537,1111.330322 908.984131,1111.893799 
	C910.418335,1112.374023 911.893188,1112.733032 913.350037,1113.145630 
	C913.146667,1114.019165 912.943359,1114.892700 912.740051,1115.766357 
	C908.312988,1114.966064 903.808044,1114.457031 899.476807,1113.298706 
	C892.622742,1111.465942 885.883362,1109.203857 879.100769,1107.105957 
	C878.479065,1106.913696 877.871338,1106.641357 877.298950,1106.329346 
	C867.687683,1101.089966 857.987915,1096.003174 848.512756,1090.527710 
	C842.820007,1087.237915 837.519775,1083.275146 831.965271,1079.737061 
	C829.043762,1077.876343 825.954834,1076.278564 822.649414,1074.350464 
z"/>
<path fill="#F1F7FF" opacity="1.000000" stroke="none" 
	d="
M775.879395,1019.115906 
	C764.141174,1013.768250 754.581055,1005.697632 746.331604,995.988464 
	C746.586304,995.588074 746.841003,995.187683 747.095703,994.787292 
	C749.384277,996.246765 751.672913,997.706238 754.493347,999.503052 
	C755.302612,999.808838 755.580078,999.777344 755.857483,999.745850 
	C755.705383,999.367737 755.553223,998.989685 755.401123,998.611572 
	C753.446167,994.502869 751.491272,990.394226 749.536377,986.285522 
	C749.874756,986.094238 750.213196,985.903015 750.551575,985.711731 
	C753.911011,990.162598 757.270447,994.613403 761.379333,1000.057129 
	C762.195312,998.120850 762.693542,996.938416 763.262451,995.588501 
	C764.398987,996.818054 765.054260,997.306946 764.979736,997.477905 
	C761.198059,1006.157654 767.806763,1010.269592 772.687012,1015.142334 
	C773.741272,1016.195007 774.766846,1017.276245 775.878784,1018.695557 
	C775.951843,1019.046692 775.879395,1019.115906 775.879395,1019.115906 
z"/>
<path fill="#FEFFFF" opacity="1.000000" stroke="none" 
	d="
M1301.453369,932.450562 
	C1297.080200,939.700256 1293.328613,947.440491 1288.125610,954.035522 
	C1284.363403,958.804138 1278.673462,962.052002 1273.510742,966.082275 
	C1273.178345,966.186401 1272.902832,965.924133 1272.755859,965.797607 
	C1281.808594,954.494507 1291.008301,943.317932 1300.663818,932.135132 
	C1301.119507,932.128906 1301.453491,932.450562 1301.453369,932.450562 
z"/>
<path fill="#E5EFFE" opacity="1.000000" stroke="none" 
	d="
M1314.955811,911.118286 
	C1315.617310,910.035461 1316.127563,909.251709 1316.637817,908.467957 
	C1317.163940,908.804932 1317.689941,909.141968 1318.215942,909.478943 
	C1314.778442,914.888000 1311.340820,920.296997 1307.903320,925.706055 
	C1307.289429,925.323425 1306.675415,924.940796 1306.061523,924.558167 
	C1308.975830,920.177856 1311.890137,915.797607 1314.955811,911.118286 
z"/>
<path fill="#FFFFFF" opacity="1.000000" stroke="none" 
	d="
M606.977051,841.977783 
	C606.909668,840.848389 606.909668,839.775635 606.909668,838.702881 
	C607.185181,838.703613 607.460632,838.704346 607.736145,838.705078 
	C607.736145,839.707886 607.736145,840.710693 607.458679,841.929321 
	C607.181213,842.145203 607.044373,842.034424 606.977051,841.977783 
z"/>
<path fill="#E5EFFE" opacity="1.000000" stroke="none" 
	d="
M1305.068359,927.058716 
	C1304.635864,927.711243 1304.203369,928.363831 1303.770752,929.016357 
	C1303.556152,928.875549 1303.341553,928.734802 1303.126953,928.594055 
	C1303.486694,928.053101 1303.846436,927.512146 1304.573730,926.955261 
	C1304.941162,926.939270 1305.068359,927.058716 1305.068359,927.058716 
z"/>
<path fill="#FFFFFF" opacity="1.000000" stroke="none" 
	d="
M594.331299,703.637939 
	C594.617981,703.997864 594.737183,704.589172 594.856384,705.180420 
	C594.665955,705.215210 594.475525,705.249939 594.285034,705.284668 
	C594.244690,704.812866 594.204285,704.341064 594.331299,703.637939 
z"/>
<path fill="#FEFFFF" opacity="1.000000" stroke="none" 
	d="
M937.684448,428.602112 
	C937.925598,428.471863 938.349304,428.504364 938.773010,428.536896 
	C938.471069,428.612915 938.169067,428.688904 937.684448,428.602112 
z"/>
<path fill="#E5EFFE" opacity="1.000000" stroke="none" 
	d="
M1301.173462,931.033569 
	C1301.707153,930.914368 1302.240967,930.795166 1302.267090,930.870850 
	C1301.564209,931.054993 1301.368896,931.044250 1301.173462,931.033569 
z"/>
<path fill="#FEFFFF" opacity="1.000000" stroke="none" 
	d="
M1301.033325,931.204224 
	C1301.368896,931.044250 1301.564209,931.054993 1302.054688,931.073364 
	C1302.183472,931.410339 1302.017090,931.739746 1301.652100,932.259888 
	C1301.453491,932.450562 1301.119507,932.128906 1300.953369,931.966431 
	C1300.787231,931.803894 1300.893188,931.375000 1301.033325,931.204224 
z"/>
<path fill="#FEFFFF" opacity="1.000000" stroke="none" 
	d="
M1248.815430,959.812805 
	C1249.013794,959.520325 1249.351807,959.366577 1249.689819,959.212891 
	C1249.696289,959.459106 1249.702759,959.705383 1249.472290,960.089783 
	C1249.235352,960.227966 1248.955078,959.951538 1248.815430,959.812805 
z"/>
<path fill="#FEFFFF" opacity="1.000000" stroke="none" 
	d="
M742.290039,962.299072 
	C742.106812,962.338501 741.773132,962.220703 741.632385,961.971619 
	C741.825378,961.840393 742.139465,962.141846 742.290039,962.299072 
z"/>
<path fill="#FEFFFF" opacity="1.000000" stroke="none" 
	d="
M774.116211,983.885986 
	C774.409058,984.025085 774.630371,984.236389 774.851624,984.447754 
	C774.589905,984.488403 774.328125,984.529053 773.984741,984.337036 
	C773.903076,984.104370 774.044678,983.958313 774.116211,983.885986 
z"/>
<path fill="#E5EFFE" opacity="1.000000" stroke="none" 
	d="
M1304.878662,926.878418 
	C1305.050293,926.602356 1305.284546,926.387146 1305.518555,926.171997 
	C1305.522461,926.398071 1305.526367,926.624084 1305.299316,926.954468 
	C1305.068359,927.058716 1304.941162,926.939270 1304.878662,926.878418 
z"/>
<path fill="#FEFFFF" opacity="1.000000" stroke="none" 
	d="
M1283.590576,589.322266 
	C1283.662964,589.448975 1283.400513,589.543762 1283.400513,589.543762 
	C1283.400513,589.543762 1283.518066,589.195618 1283.590576,589.322266 
z"/>
<path fill="#F1F7FF" opacity="1.000000" stroke="none" 
	d="
M777.031982,1019.956238 
	C776.682129,1019.858948 776.332275,1019.761597 775.930908,1019.390076 
	C775.879395,1019.115906 775.951843,1019.046692 775.988525,1019.012207 
	C776.314209,1019.152771 776.603149,1019.327759 776.945435,1019.748474 
	C776.998779,1019.994263 777.031982,1019.956238 777.031982,1019.956238 
z"/>
<path fill="#F1F7FF" opacity="1.000000" stroke="none" 
	d="
M776.979004,1020.010010 
	C777.176758,1020.137268 777.394226,1020.248840 777.611694,1020.360413 
	C777.432922,1020.352478 777.254150,1020.344604 777.053711,1020.146484 
	C777.031982,1019.956238 776.998779,1019.994263 776.979004,1020.010010 
z"/>
<path fill="#F9FBFF" opacity="1.000000" stroke="none" 
	d="
M787.419800,1045.376099 
	C787.668518,1045.364380 787.756653,1045.456421 787.844788,1045.548462 
	C787.649597,1045.525513 787.454407,1045.502686 787.419800,1045.376099 
z"/>
<path fill="#FEFFFF" opacity="1.000000" stroke="none" 
	d="
M1086.268921,433.598389 
	C1086.226807,433.356049 1086.348755,433.192719 1086.461182,433.199066 
	C1086.572876,433.205353 1086.675049,433.382202 1086.781372,433.484253 
	C1086.663940,433.573425 1086.546387,433.662567 1086.268921,433.598389 
z"/>
<path fill="#4891FC" opacity="1.000000" stroke="none" 
	d="
M815.916870,868.280029 
	C815.561035,859.203308 814.943115,850.594666 814.974365,841.988403 
	C815.013367,831.248352 815.598389,820.510620 815.920959,809.771057 
	C815.993286,807.362427 815.883484,805.184265 819.336975,804.765808 
	C820.349976,804.643127 821.496216,802.302307 821.852844,800.804626 
	C822.501465,798.081116 822.474060,795.204712 822.963379,792.433472 
	C823.877075,787.259583 826.316101,783.041199 831.187927,780.600769 
	C834.093750,779.145142 834.874084,777.264526 834.344910,773.799866 
	C831.851135,757.474243 830.465881,741.067444 832.936951,724.572021 
	C833.130432,723.280518 833.411926,721.627441 832.815857,720.655518 
	C829.826233,715.780457 826.535278,711.091064 823.415894,706.293701 
	C823.015564,705.678223 822.920959,704.824951 822.813904,704.063599 
	C819.711426,682.006104 816.346619,659.979675 813.699524,637.867310 
	C812.861755,630.868958 813.315002,623.549438 814.320801,616.540955 
	C815.457886,608.617310 819.910645,602.089844 827.246826,598.532776 
	C839.910339,592.392822 852.526855,585.945740 865.714111,581.139404 
	C894.242615,570.741455 924.113464,568.424500 954.229126,568.924438 
	C977.874878,569.316895 1001.532288,570.947632 1025.149048,570.424866 
	C1039.477051,570.107849 1053.742310,566.773010 1068.027466,564.734985 
	C1087.757935,561.920105 1107.495117,559.144592 1127.194580,556.125244 
	C1131.255981,555.502686 1135.154419,553.846985 1139.145264,552.728760 
	C1153.630371,548.669861 1163.045898,552.223999 1171.242310,564.771179 
	C1179.941528,578.087891 1183.510986,592.979431 1185.036499,608.582642 
	C1188.773071,646.802307 1188.223022,685.092529 1187.319458,723.402832 
	C1186.647827,751.880310 1186.192749,780.363098 1185.721191,808.844849 
	C1185.406738,827.832581 1185.922852,846.863647 1184.797241,865.799805 
	C1183.724609,883.846863 1181.023315,901.797974 1178.996704,919.786621 
	C1178.528198,923.944275 1176.263794,926.625305 1172.326782,928.292358 
	C1168.973877,929.712158 1165.746948,931.557800 1162.718018,933.592773 
	C1146.565552,944.445129 1128.198364,947.251221 1109.424194,947.745056 
	C1093.620361,948.160767 1077.776733,947.021484 1061.970337,947.397461 
	C1047.194824,947.749023 1032.446899,949.214722 1017.682434,950.121094 
	C1015.261536,950.269653 1012.818359,950.009583 1010.386169,950.028259 
	C1000.105713,950.107056 989.824890,950.175964 979.545715,950.343750 
	C975.890930,950.403381 972.220093,951.052795 968.595642,950.821350 
	C966.392578,950.680542 964.264282,949.370361 961.413330,948.335327 
	C959.513672,951.521790 956.615234,950.857544 953.232239,947.684509 
	C952.437683,946.939087 949.479553,947.094543 948.759155,947.920044 
	C945.686340,951.440613 943.105164,950.221985 940.135376,947.947205 
	C934.353943,943.518677 933.976562,943.603882 928.848755,949.092651 
	C928.130737,944.582947 927.461853,940.382019 926.793030,936.181152 
	C926.266479,936.079407 925.739990,935.977722 925.213501,935.875977 
	C924.114624,940.553345 923.015808,945.230652 921.672058,950.950378 
	C920.487305,942.990967 919.402283,935.701355 918.317261,928.411743 
	C918.120667,928.429565 917.924133,928.447388 917.727539,928.465149 
	C916.609497,935.861816 915.491516,943.258484 914.373474,950.655151 
	C913.814575,950.700439 913.255615,950.745728 912.696716,950.791016 
	C910.398010,946.585876 908.099304,942.380798 905.821106,938.213257 
	C905.463074,938.729187 904.410522,940.245728 903.118225,942.107788 
	C892.442810,933.241150 879.702271,932.636963 866.727356,933.020691 
	C854.696533,933.376465 842.610840,932.732849 833.392334,924.041138 
	C827.192810,918.195862 822.331055,910.890015 817.190857,903.998901 
	C816.190613,902.657837 816.274963,900.161743 816.534607,898.292175 
	C817.306519,892.734314 818.505859,887.453125 816.472412,881.653076 
	C815.110046,877.767456 816.039124,873.078613 815.916870,868.280029 
M1068.784424,828.727173 
	C1066.310669,824.198914 1063.935181,819.613708 1061.348389,815.151001 
	C1019.270386,742.560791 977.151489,669.994141 935.118286,597.377991 
	C933.417297,594.439270 931.507690,593.194763 928.020020,593.235046 
	C912.191833,593.417603 896.360474,593.307312 880.530212,593.327881 
	C879.081482,593.329773 877.632996,593.512512 876.151733,593.613464 
	C876.151733,698.746826 876.151733,803.465698 876.151733,908.205688 
	C892.205322,908.205688 907.903748,908.205688 924.019470,908.205688 
	C923.227783,822.830627 925.818420,737.902283 920.689392,652.996277 
	C926.028748,662.486755 930.700684,672.246094 936.116089,681.573669 
	C979.329102,756.004761 1022.698975,830.344849 1065.936035,904.762024 
	C1067.682739,907.768433 1069.725708,908.789612 1073.124634,908.755188 
	C1088.786621,908.596130 1104.451050,908.692505 1120.114624,908.673523 
	C1121.701782,908.671631 1123.288696,908.510681 1124.788086,908.428345 
	C1124.788086,803.135864 1124.788086,698.434814 1124.788086,593.668823 
	C1108.794189,593.668823 1093.213257,593.668823 1076.574341,593.668823 
	C1077.188721,678.757507 1077.800415,763.485107 1078.405273,847.251526 
	C1075.679810,842.025085 1072.387451,835.711548 1068.784424,828.727173 
z"/>
<path fill="#4890FC" opacity="1.000000" stroke="none" 
	d="
M1230.250122,998.308716 
	C1226.180176,1002.193604 1222.601440,1006.861450 1217.932251,1009.791565 
	C1209.611694,1015.013123 1200.670654,1019.261353 1191.885742,1023.712463 
	C1190.546997,1024.390869 1188.653320,1023.974426 1185.645264,1024.139771 
	C1193.069946,1019.181396 1199.424927,1014.937378 1205.816284,1010.669189 
	C1207.361938,1010.086487 1209.304932,1009.825623 1210.600586,1008.769958 
	C1213.543823,1006.371765 1215.839478,1003.039612 1219.019653,1001.112000 
	C1221.946045,999.338196 1225.684814,998.904358 1229.577637,997.995850 
	C1230.089722,998.111450 1230.250122,998.308716 1230.250122,998.308716 
z"/>
<path fill="#5A9CFC" opacity="1.000000" stroke="none" 
	d="
M725.403687,955.055115 
	C730.034424,955.710144 730.800476,958.927795 731.511597,963.941101 
	C727.759033,961.213074 724.978577,959.191650 721.621277,956.750977 
	C723.365173,955.928711 724.208374,955.531128 725.403687,955.055115 
z"/>
<path fill="#4890FC" opacity="1.000000" stroke="none" 
	d="
M1230.000977,998.020508 
	C1229.213623,996.909851 1228.515015,995.890137 1227.633667,994.603333 
	C1231.359863,993.790710 1234.654663,993.072144 1239.510376,992.013123 
	C1235.854980,994.612915 1233.378906,996.373901 1230.576416,998.221802 
	C1230.250122,998.308716 1230.089722,998.111450 1230.000977,998.020508 
z"/>
<path fill="#4890FC" opacity="1.000000" stroke="none" 
	d="
M795.202454,493.216522 
	C794.898865,493.389374 794.595337,493.562256 794.291748,493.735107 
	C794.307678,493.503204 794.323669,493.271332 794.683228,493.034363 
	C795.026917,493.029327 795.202454,493.216522 795.202454,493.216522 
z"/>
<path fill="#4890FC" opacity="1.000000" stroke="none" 
	d="
M796.308350,492.304810 
	C796.207214,492.677826 795.951965,492.893982 795.449585,493.163330 
	C795.202454,493.216522 795.026917,493.029327 794.936279,492.936768 
	C795.016113,492.565826 795.186646,492.287415 795.597046,491.926270 
	C795.836914,491.843567 796.154297,492.147949 796.308350,492.304810 
z"/>
<path fill="#4890FC" opacity="1.000000" stroke="none" 
	d="
M755.191223,998.819214 
	C755.553223,998.989685 755.705383,999.367737 755.857483,999.745850 
	C755.580078,999.777344 755.302612,999.808838 754.800659,999.648193 
	C754.711182,999.312927 754.846313,999.169861 755.191223,998.819214 
z"/>
<path fill="#FEFEFF" opacity="1.000000" stroke="none" 
	d="
M1068.939697,829.062622 
	C1072.387451,835.711548 1075.679810,842.025085 1078.405273,847.251526 
	C1077.800415,763.485107 1077.188721,678.757507 1076.574341,593.668823 
	C1093.213257,593.668823 1108.794189,593.668823 1124.788086,593.668823 
	C1124.788086,698.434814 1124.788086,803.135864 1124.788086,908.428345 
	C1123.288696,908.510681 1121.701782,908.671631 1120.114624,908.673523 
	C1104.451050,908.692505 1088.786621,908.596130 1073.124634,908.755188 
	C1069.725708,908.789612 1067.682739,907.768433 1065.936035,904.762024 
	C1022.698975,830.344849 979.329102,756.004761 936.116089,681.573669 
	C930.700684,672.246094 926.028748,662.486755 920.689392,652.996277 
	C925.818420,737.902283 923.227783,822.830627 924.019470,908.205688 
	C907.903748,908.205688 892.205322,908.205688 876.151733,908.205688 
	C876.151733,803.465698 876.151733,698.746826 876.151733,593.613464 
	C877.632996,593.512512 879.081482,593.329773 880.530212,593.327881 
	C896.360474,593.307312 912.191833,593.417603 928.020020,593.235046 
	C931.507690,593.194763 933.417297,594.439270 935.118286,597.377991 
	C977.151489,669.994141 1019.270386,742.560791 1061.348389,815.151001 
	C1063.935181,819.613708 1066.310669,824.198914 1068.939697,829.062622 
z"/>
</svg>